<svg xmlns="http://www.w3.org/2000/svg" viewBox="0 0 1024 1024">
  <path d="M512 930
           C420 850, 250 710, 140 590
           C40 480, 40 260, 210 170
           C340 100, 460 130, 512 220
           C564 130, 684 100, 814 170
           C984 260, 984 480, 884 590
           C774 710, 604 850, 512 930 Z"
        fill="#25D366" stroke="#FFFFFF" stroke-width="28" stroke-linejoin="round"/>
  <path d="M430 360
           C395 395, 390 455, 425 525
           C460 595, 530 665, 600 700
           C670 735, 730 730, 765 695
           C780 680, 785 655, 775 640
           L735 620
           C710 608, 690 610, 675 630
           L650 660
           C610 650, 545 585, 535 545
           L565 520
           C585 505, 587 485, 575 460
           L555 420
           C545 400, 520 395, 500 405
           C475 417, 450 335, 430 360 Z"
        fill="#FFFFFF"/>
</svg>