<svg xmlns="http://www.w3.org/2000/svg" width="1024" height="1024" viewBox="0 0 1024 1024">
<g>
<path d="M 515.07 917.75 C513.72,920.93 510.07,923.88 508.25,923.26 C507.29,922.93 507.35,922.33 508.50,920.69 C510.74,917.50 510.47,914.64 508.00,915.29 C506.77,915.61 505.65,915.19 505.09,914.20 C504.38,912.93 503.89,912.84 502.75,913.79 C501.96,914.45 501.02,914.76 500.66,914.49 C500.30,914.22 500.26,914.33 500.57,914.74 C500.88,915.14 501.86,915.48 502.73,915.49 C505.12,915.51 505.40,917.72 503.17,918.91 C501.63,919.73 500.64,919.50 498.52,917.84 C497.04,916.68 495.47,914.77 495.03,913.61 C494.15,911.30 495.61,908.64 497.21,909.63 C497.77,909.98 497.72,909.35 497.10,908.18 C496.37,906.82 496.34,905.91 497.00,905.50 C498.62,904.50 498.15,903.00 496.20,903.00 C493.20,903.00 491.78,905.12 493.78,906.60 C495.09,907.56 495.22,908.15 494.34,909.05 C493.09,910.32 490.62,909.42 491.49,908.01 C492.37,906.59 489.02,904.00 486.31,904.00 C484.04,904.00 483.91,904.19 485.13,905.69 C486.31,907.15 486.29,907.27 485.00,906.54 C484.17,906.08 482.49,904.79 481.25,903.68 C479.11,901.75 479.08,901.52 480.63,899.08 C481.53,897.65 481.66,897.06 480.93,897.75 C479.35,899.24 477.62,899.42 478.49,898.01 C478.84,897.45 478.44,897.28 477.56,897.62 C476.71,897.94 476.30,898.72 476.65,899.35 C477.01,899.99 476.68,899.93 475.91,899.21 C475.15,898.50 474.52,897.15 474.51,896.21 C474.50,895.12 473.65,894.46 472.17,894.38 C470.89,894.32 469.09,893.47 468.17,892.49 C467.13,891.39 467.03,891.02 467.90,891.51 C468.85,892.05 469.07,891.93 468.59,891.14 C468.19,890.49 467.49,890.20 467.04,890.47 C466.59,890.75 464.57,888.96 462.55,886.49 C460.52,884.02 458.07,882.00 457.11,882.00 C454.80,882.00 450.47,877.44 451.92,876.55 C452.52,876.18 453.52,876.20 454.15,876.60 C454.89,877.05 455.04,876.87 454.56,876.10 C454.15,875.44 453.30,875.08 452.66,875.30 C452.02,875.52 450.02,874.42 448.22,872.85 C444.83,869.91 442.33,869.04 443.60,871.25 C444.43,872.69 442.80,871.33 430.77,860.59 C422.42,853.13 421.37,851.40 423.31,848.30 C424.32,846.68 420.48,844.71 417.91,845.53 C416.20,846.07 416.09,846.42 417.17,847.83 C417.87,848.75 417.23,848.43 415.76,847.11 C413.57,845.17 413.27,844.36 414.11,842.79 C415.06,841.03 414.95,840.95 412.99,842.00 C411.24,842.94 410.48,842.84 408.97,841.47 C407.28,839.94 407.24,839.56 408.58,837.51 C409.94,835.44 409.90,835.21 408.11,834.74 C406.79,834.39 406.31,834.64 406.64,835.51 C406.91,836.22 406.59,837.14 405.91,837.55 C405.13,838.04 404.95,837.89 405.40,837.15 C405.83,836.46 405.47,836.00 404.50,836.00 C403.53,836.00 403.17,835.54 403.60,834.85 C404.05,834.10 403.87,833.96 403.07,834.45 C401.47,835.45 396.00,830.26 396.00,827.75 C396.00,826.42 395.48,826.02 394.25,826.40 C392.08,827.06 382.60,818.62 329.30,768.58 C313.02,753.30 306.33,746.41 307.22,745.84 C308.21,745.22 308.15,745.02 307.00,744.97 C306.17,744.94 304.51,743.37 303.31,741.47 C301.39,738.47 301.30,737.85 302.56,736.59 C304.39,734.75 304.38,734.00 302.54,734.00 C300.70,734.00 298.68,737.62 299.58,739.27 C299.96,739.95 292.35,732.65 282.69,723.07 C273.02,713.48 265.30,705.32 265.54,704.93 C266.14,703.96 262.01,698.87 261.09,699.45 C260.67,699.70 258.36,697.91 255.96,695.46 C253.55,693.01 251.99,691.00 252.49,691.00 C252.99,691.00 252.84,690.44 252.15,689.75 C251.46,689.06 250.42,688.50 249.83,688.50 C249.24,688.50 244.87,684.26 240.13,679.07 C235.38,673.88 232.13,670.01 232.90,670.47 C234.66,671.52 233.81,669.97 229.75,664.75 C227.00,661.21 224.15,659.53 225.51,662.25 C226.81,664.86 209.88,645.87 191.17,623.75 C189.86,622.20 189.89,621.78 191.44,620.06 C193.35,617.96 192.66,615.53 190.40,616.40 C188.67,617.06 185.84,616.07 186.48,615.03 C186.74,614.61 186.06,613.46 184.98,612.48 C183.89,611.49 182.96,609.75 182.92,608.60 C182.88,607.44 182.61,607.08 182.32,607.79 C181.90,608.85 181.51,608.85 180.21,607.79 C178.87,606.71 178.74,606.74 179.38,608.00 C179.80,608.83 178.56,607.70 176.62,605.50 C174.67,603.30 172.95,600.38 172.79,599.00 C172.62,597.51 171.95,596.62 171.14,596.79 C170.93,596.83 170.75,596.87 170.57,596.88 C169.44,596.90 168.28,595.32 158.74,582.29 L 158.17 581.50 C149.25,569.32 138.33,553.40 131.43,542.50 C127.46,536.23 125.94,529.00 128.60,529.00 C129.38,529.00 129.70,528.37 129.36,527.50 C128.55,525.38 127.67,525.65 126.40,528.40 C125.69,529.91 125.63,531.45 126.21,532.64 C127.01,534.25 126.91,534.23 125.49,532.50 C123.30,529.84 118.60,520.64 119.82,521.39 C120.34,521.71 121.28,521.37 121.90,520.62 C123.52,518.66 120.61,516.25 118.61,517.91 C117.47,518.85 115.57,515.78 108.07,500.86 C103.03,490.86 99.11,482.18 99.36,481.59 C101.19,477.14 101.19,477.08 99.22,477.46 C96.91,477.90 96.58,477.28 90.37,460.72 C79.82,432.62 73.21,404.96 70.05,375.79 C67.57,352.91 69.20,318.35 73.88,294.46 C75.62,285.57 77.77,278.10 77.94,280.32 C77.97,280.77 78.74,280.41 79.64,279.51 C80.86,278.29 80.98,277.58 80.14,276.74 C79.51,276.11 79.00,274.75 79.00,273.71 C79.00,270.71 83.12,257.61 84.40,256.50 C85.04,255.95 85.66,254.31 85.76,252.86 C86.24,246.48 101.75,214.43 111.83,199.00 C117.16,190.84 129.42,174.71 131.60,173.00 C133.39,171.58 133.42,171.61 132.04,173.50 C131.23,174.60 132.03,174.17 133.81,172.54 C135.59,170.91 136.85,169.05 136.60,168.41 C136.36,167.77 137.79,165.72 139.78,163.87 C141.78,162.02 142.76,161.36 141.96,162.41 C140.59,164.21 140.63,164.26 142.75,163.13 C143.99,162.47 145.00,162.24 145.00,162.62 C145.00,163.00 145.85,162.54 146.89,161.60 C149.15,159.55 150.58,154.28 148.37,156.10 C147.63,156.72 147.31,157.74 147.67,158.36 C148.03,158.99 147.95,159.17 147.50,158.76 C147.05,158.35 145.97,158.55 145.09,159.21 C144.22,159.87 145.30,158.48 147.50,156.12 C151.91,151.39 157.87,146.73 156.53,149.05 C155.51,150.81 161.42,145.58 164.76,141.76 C166.08,140.26 168.38,138.15 169.87,137.09 C172.57,135.17 172.59,135.17 172.74,137.23 C172.96,140.11 174.70,141.70 176.09,140.31 C176.88,139.52 176.73,138.51 175.53,136.68 C173.87,134.15 173.88,134.14 179.14,130.59 C182.50,128.33 184.65,127.43 185.08,128.12 C185.50,128.82 186.24,128.53 187.12,127.32 C189.97,123.45 194.07,121.06 196.92,121.63 C199.66,122.18 203.57,119.73 202.56,118.09 C201.82,116.90 210.79,112.98 212.64,113.69 C213.62,114.07 214.08,113.93 213.73,113.37 C212.68,111.68 217.58,112.43 219.39,114.25 C221.50,116.36 222.07,116.40 224.50,114.63 C226.32,113.29 226.31,113.23 224.33,112.60 C223.20,112.25 221.47,112.27 220.47,112.65 C219.04,113.20 218.79,112.98 219.31,111.62 C219.78,110.42 219.60,110.11 218.74,110.59 C217.89,111.07 217.82,110.96 218.50,110.23 C220.27,108.34 231.98,104.89 233.58,105.79 C234.85,106.50 234.77,106.90 233.04,108.47 C231.92,109.48 231.00,110.92 231.00,111.65 C231.00,114.13 235.50,113.06 238.25,109.93 C239.74,108.23 241.41,107.13 241.96,107.48 C242.56,107.85 242.73,107.46 242.38,106.54 C241.75,104.89 243.16,105.07 247.62,107.19 C250.59,108.60 253.41,107.84 253.85,105.49 C254.06,104.39 254.61,103.26 255.06,102.97 C255.52,102.68 255.52,101.85 255.07,101.12 C254.51,100.20 253.27,100.00 251.12,100.47 C249.35,100.86 248.26,101.61 248.62,102.19 C249.02,102.84 248.46,102.96 247.08,102.52 C245.88,102.14 244.29,102.34 243.54,102.97 C242.65,103.70 241.96,103.75 241.56,103.10 C240.50,101.38 262.59,96.33 274.50,95.56 C278.35,95.31 280.38,95.35 279.00,95.65 C277.62,95.95 276.14,96.82 275.70,97.60 C275.26,98.37 274.22,99.00 273.39,99.00 C272.56,99.00 272.16,98.55 272.50,98.00 C272.85,97.43 271.95,97.00 270.39,97.00 C268.89,97.00 267.96,97.30 268.33,97.66 C268.69,98.02 268.07,98.96 266.95,99.75 C265.33,100.88 265.15,101.48 266.07,102.59 C267.65,104.49 268.69,104.37 271.23,102.00 C272.72,100.61 274.92,99.95 278.44,99.84 C284.53,99.66 287.23,99.33 292.50,98.13 C296.32,97.27 296.36,97.22 293.50,96.95 C291.64,96.77 292.78,96.41 296.50,96.00 L 302.50 95.34 L 295.83 95.17 C292.17,95.08 289.02,95.42 288.83,95.93 C288.65,96.44 287.20,97.18 285.60,97.57 C283.65,98.06 282.92,97.94 283.36,97.23 C283.72,96.65 283.45,95.97 282.76,95.71 C275.93,93.23 320.90,93.86 335.50,96.45 C367.00,102.05 395.25,113.56 423.21,132.20 C446.37,147.63 470.43,171.94 491.09,200.77 C497.02,209.04 497.78,210.55 496.27,211.09 C494.76,211.63 495.08,212.27 498.45,215.36 C500.62,217.36 502.66,219.00 502.98,219.00 C504.25,219.00 507.01,224.88 506.03,225.48 C505.40,225.87 505.61,227.00 506.59,228.50 C508.05,230.72 508.01,231.01 506.08,232.67 C504.17,234.30 503.23,237.00 504.57,237.00 C505.57,237.00 508.00,234.19 508.00,233.03 C508.00,232.36 509.46,232.03 511.65,232.21 C514.71,232.45 515.32,232.17 515.47,230.44 C515.64,228.40 522.75,216.81 524.23,216.17 C524.65,215.98 525.00,215.40 525.00,214.86 C525.00,211.89 546.34,183.41 549.11,182.68 C550.60,182.29 551.07,181.62 550.63,180.48 C550.18,179.29 554.19,174.66 565.25,163.61 C583.13,145.74 593.61,137.04 598.12,136.33 C602.50,135.64 606.41,134.08 605.65,133.31 C605.30,132.97 605.58,131.99 606.26,131.15 C607.28,129.89 607.25,129.77 606.10,130.46 C605.20,131.00 604.92,130.93 605.33,130.28 C606.22,128.84 617.73,122.13 628.88,116.55 C635.56,113.20 638.56,112.16 639.33,112.93 C640.57,114.17 644.00,114.38 644.00,113.20 C644.00,112.76 643.52,111.92 642.94,111.34 C642.19,110.59 643.98,109.50 649.00,107.64 C652.91,106.19 656.65,105.03 657.31,105.07 C657.96,105.11 657.61,105.49 656.52,105.91 C654.61,106.66 654.62,106.72 656.81,107.90 C658.06,108.57 659.96,108.83 661.04,108.49 C663.20,107.80 663.72,104.41 661.77,103.76 C660.04,103.18 675.44,99.13 687.92,96.88 C699.37,94.81 708.53,94.37 706.00,96.00 C705.15,96.55 705.00,96.98 705.66,96.98 C706.30,96.99 706.71,98.04 706.57,99.32 C706.33,101.53 706.62,101.64 713.16,101.74 C716.92,101.80 720.00,101.43 720.00,100.92 C720.00,100.42 719.52,100.00 718.94,100.00 C718.36,100.00 718.19,99.50 718.57,98.89 C719.04,98.13 718.32,97.99 716.25,98.45 C714.16,98.90 712.77,98.63 711.70,97.55 C710.84,96.70 709.63,96.00 709.01,96.00 C708.39,96.00 708.16,95.55 708.50,95.00 C709.42,93.51 738.67,93.85 751.50,95.51 C763.97,97.12 775.71,99.37 776.68,100.35 C777.04,100.71 776.63,101.00 775.77,101.00 C773.37,101.00 772.79,103.80 775.05,104.52 C777.32,105.24 780.84,102.51 778.74,101.66 C774.89,100.10 782.62,101.34 787.91,103.13 C792.29,104.61 793.79,105.52 792.85,106.11 C792.11,106.58 791.92,106.98 792.42,106.98 C792.93,106.99 792.26,108.19 790.92,109.65 L 788.50 112.31 L 793.71 109.52 C795.63,108.49 796.77,107.76 798.00,107.51 C800.34,107.02 803.04,108.23 812.05,112.25 C812.96,112.66 813.95,113.10 815.00,113.57 C826.27,118.60 836.59,124.47 847.37,132.00 C851.71,135.02 856.12,138.01 857.19,138.63 C858.26,139.25 859.81,140.71 860.63,141.88 C861.44,143.04 862.65,144.00 863.32,144.00 C863.98,144.00 865.11,144.95 865.83,146.10 C866.92,147.85 866.92,148.08 865.82,147.46 C864.80,146.88 864.76,146.99 865.67,147.98 C866.32,148.67 866.61,149.86 866.31,150.62 C865.66,152.33 866.44,152.37 869.01,150.76 C870.80,149.64 871.99,150.52 881.41,159.91 C890.42,168.89 891.65,170.50 890.42,171.72 C888.47,173.68 888.64,174.33 890.96,173.72 C892.28,173.38 893.93,174.24 896.01,176.35 C900.11,180.53 909.34,192.39 911.10,195.73 C911.87,197.20 914.40,201.30 916.72,204.85 C920.49,210.63 921.48,214.03 918.93,212.46 C918.42,212.14 918.00,212.58 918.00,213.44 C918.00,214.30 918.45,215.00 919.00,215.00 C919.55,215.00 920.00,214.55 920.00,214.00 C920.00,211.09 922.41,213.87 925.85,220.75 C941.61,252.27 951.92,287.04 955.07,319.35 C956.43,333.29 955.80,375.31 954.08,385.00 C953.45,388.58 952.48,394.20 951.94,397.50 C950.08,408.81 946.68,423.00 945.84,423.00 C945.38,423.00 945.00,422.45 945.00,421.79 C945.00,420.97 944.50,421.07 943.48,422.09 C942.12,423.45 942.12,423.93 943.48,426.66 C944.71,429.12 944.78,430.36 943.85,433.10 C943.22,434.97 942.39,436.95 941.99,437.50 C941.60,438.05 941.03,440.09 940.74,442.02 C939.49,450.19 924.46,486.71 915.03,504.50 C903.59,526.07 902.60,527.70 899.78,529.31 C897.65,530.53 897.05,531.51 897.37,533.28 C897.64,534.77 896.58,537.55 894.46,540.92 C891.61,545.44 890.83,546.74 889.72,547.15 C889.23,547.33 888.69,547.34 887.88,547.39 C886.37,547.46 885.58,548.26 885.32,549.98 C884.96,552.37 884.99,552.39 886.39,550.48 C887.19,549.39 888.17,548.84 888.58,549.25 C889.00,549.66 888.78,550.00 888.11,550.00 C887.43,550.00 887.14,550.42 887.46,550.93 C887.77,551.44 887.08,552.16 885.92,552.53 C882.70,553.55 880.00,556.72 880.00,559.46 C880.00,560.93 879.16,562.38 877.94,563.03 C876.49,563.81 876.17,564.50 876.86,565.33 C877.55,566.16 874.73,570.78 867.30,581.01 C844.11,612.87 810.73,652.29 776.68,688.00 C766.60,698.58 747.06,717.43 748.26,715.42 C748.79,714.53 746.89,714.30 744.13,714.92 C743.92,714.96 744.32,715.67 745.00,716.50 C745.99,717.69 745.99,718.31 745.01,719.49 C744.33,720.31 743.30,720.69 742.73,720.33 C742.16,719.98 741.96,720.13 742.30,720.67 C742.88,721.62 730.51,734.67 728.50,735.23 C727.95,735.38 727.59,735.77 727.70,736.11 C727.81,736.44 726.48,738.02 724.74,739.61 C723.00,741.20 722.15,741.74 722.85,740.82 C724.00,739.31 723.84,739.22 721.32,739.89 C719.39,740.40 718.39,741.39 718.15,743.02 C717.84,745.20 717.96,745.28 719.63,743.95 C720.64,743.15 718.80,745.54 715.55,749.25 C712.30,752.96 709.25,756.00 708.76,756.00 C708.28,756.00 708.19,755.50 708.57,754.89 C709.47,753.43 707.27,752.12 704.96,752.72 C702.64,753.33 703.47,755.61 706.32,756.43 C708.38,757.01 708.27,757.26 704.42,760.78 C702.18,762.82 692.50,771.92 682.91,781.00 C666.44,796.59 635.08,825.30 612.16,845.76 C606.47,850.84 601.18,855.06 600.41,855.12 C597.05,855.42 596.51,855.65 596.71,856.68 C596.96,857.96 593.79,857.90 592.85,856.60 C592.49,856.11 591.37,856.03 590.35,856.43 C588.57,857.11 588.58,857.20 590.47,858.59 C591.56,859.39 593.02,859.82 593.72,859.55 C596.26,858.58 591.83,863.94 588.88,865.41 C587.28,866.21 586.20,866.49 586.48,866.04 C587.32,864.67 583.85,863.88 582.37,865.11 C581.62,865.73 581.00,866.99 581.00,867.90 C581.00,869.86 578.13,872.50 576.00,872.50 C575.17,872.50 574.48,873.17 574.45,874.00 C574.41,875.52 573.73,875.63 570.94,874.54 C570.07,874.20 568.35,874.83 567.04,875.97 C565.75,877.08 564.26,878.00 563.74,878.00 C563.22,878.00 563.12,878.79 563.53,879.75 C563.93,880.71 564.23,882.30 564.19,883.27 C564.15,884.31 564.57,884.76 565.22,884.37 C565.87,883.96 566.02,884.15 565.59,884.85 C565.08,885.68 564.33,885.71 562.92,884.96 C561.84,884.38 560.57,884.15 560.10,884.44 C558.80,885.24 558.04,889.00 559.18,889.00 C561.09,889.00 556.42,893.89 547.74,900.98 C541.13,906.38 538.50,907.97 536.98,907.49 C535.87,907.14 535.22,906.46 535.51,905.98 C536.51,904.37 532.20,902.82 530.00,904.00 C526.91,905.65 527.54,907.34 530.98,906.65 C533.28,906.19 534.19,906.50 534.99,907.98 C535.85,909.59 535.35,910.53 531.93,913.70 C529.68,915.79 526.71,918.17 525.34,919.00 C522.99,920.41 522.72,920.34 520.64,917.75 C519.42,916.24 517.93,915.00 517.33,915.00 C516.73,915.00 515.72,916.24 515.07,917.75 ZM 601.51 643.25 C603.58,647.42 605.22,647.95 607.22,645.10 C607.95,644.05 609.66,643.04 611.02,642.85 C612.40,642.65 613.50,641.84 613.50,641.00 C613.50,639.90 611.91,639.35 607.50,638.92 C602.77,638.46 602.24,638.26 605.00,637.97 C606.92,637.78 604.00,637.34 598.50,637.00 L 588.50 636.39 L 597.50 636.19 C602.45,636.08 610.78,635.27 616.00,634.39 C632.06,631.70 633.50,631.64 635.40,633.55 C636.62,634.76 637.44,634.96 638.19,634.21 C638.77,633.63 639.92,633.41 640.74,633.73 C641.91,634.18 642.07,633.80 641.50,632.02 C640.85,629.94 641.02,629.79 643.39,630.38 C645.99,631.04 646.57,630.16 646.09,626.30 C646.00,625.64 646.90,624.59 648.09,623.95 C649.38,623.26 649.99,623.21 649.60,623.83 C649.25,624.40 649.45,625.16 650.04,625.52 C650.76,625.97 650.60,626.97 649.53,628.59 C647.81,631.21 648.98,631.93 651.00,629.50 C651.68,628.67 651.96,628.00 651.62,628.00 C650.34,628.00 654.89,624.17 656.96,623.51 C658.14,623.14 659.51,621.80 659.98,620.54 C660.82,618.35 662.50,618.01 666.83,619.15 C667.56,619.34 668.88,618.38 669.77,617.00 C670.83,615.34 670.91,614.92 669.99,615.75 C668.18,617.38 665.53,617.34 664.14,615.66 C663.27,614.62 664.40,613.12 669.26,608.82 C672.69,605.79 677.52,600.53 679.99,597.13 C682.46,593.73 684.64,591.41 684.83,591.98 C685.49,593.96 687.23,592.97 686.69,590.92 C686.16,588.91 691.66,576.18 695.30,570.98 C696.22,569.67 696.62,568.35 696.19,568.05 C695.76,567.75 695.70,564.58 696.05,561.00 C696.41,557.42 696.76,555.29 696.85,556.25 C697.08,558.90 699.92,558.34 701.02,555.43 C701.09,555.27 701.15,555.11 701.21,554.96 C701.75,553.53 702.01,552.86 701.79,552.46 C701.56,552.06 700.87,551.93 699.53,551.60 C698.17,551.25 694.06,547.97 690.40,544.29 C686.75,540.62 684.98,538.41 686.48,539.40 C689.65,541.47 692.24,540.20 690.10,537.62 C689.43,536.81 689.02,535.34 689.19,534.36 C689.43,532.98 688.18,532.12 683.76,530.61 C680.60,529.53 677.80,528.86 677.54,529.13 C677.28,529.39 676.95,531.04 676.82,532.80 C676.68,534.56 676.18,536.00 675.70,536.00 C673.73,536.00 662.00,532.53 662.00,531.95 C662.00,531.60 663.19,530.78 664.65,530.11 C666.64,529.21 667.02,528.62 666.17,527.77 C665.31,526.91 663.65,527.06 659.57,528.35 C654.40,529.98 649.95,529.83 647.50,527.96 C646.95,527.54 644.89,526.94 642.91,526.63 C637.47,525.77 636.15,525.03 635.81,522.67 C635.57,521.02 634.70,520.42 632.15,520.18 C629.95,519.97 629.02,520.23 629.46,520.93 C630.05,521.89 629.39,522.19 627.25,521.90 C626.84,521.84 626.61,521.41 626.74,520.94 C626.87,520.46 626.39,520.30 625.67,520.57 C624.09,521.18 621.60,516.36 623.04,515.48 C625.15,514.17 623.79,513.00 620.17,513.00 C615.36,513.00 614.72,513.64 616.61,516.52 C618.67,519.68 617.15,520.25 611.37,518.50 C608.69,517.69 604.22,517.02 601.44,517.01 C598.66,517.00 595.51,516.36 594.44,515.58 C592.41,514.09 590.00,515.08 590.00,517.41 C590.00,518.05 588.70,519.33 587.12,520.27 C585.54,521.21 582.27,524.85 579.87,528.38 C575.53,534.74 569.92,539.68 568.22,538.64 C567.73,538.33 567.26,538.74 567.17,539.54 C567.08,540.34 566.92,541.67 566.83,542.50 C566.64,544.26 564.67,544.43 561.86,542.93 C560.18,542.03 559.76,542.19 559.31,543.93 C559.01,545.07 558.26,546.04 557.63,546.10 C557.01,546.15 557.62,546.56 559.00,547.00 C560.93,547.62 560.25,547.82 556.00,547.89 C552.58,547.94 551.01,547.64 551.86,547.11 C552.84,546.48 552.90,546.06 552.06,545.54 C551.43,545.15 550.26,545.37 549.47,546.03 C547.91,547.32 543.00,546.57 543.00,545.04 C543.00,544.53 544.01,543.36 545.25,542.43 C547.04,541.09 547.12,540.89 545.61,541.40 C544.47,541.79 543.00,541.40 541.94,540.45 C539.65,538.38 534.68,537.73 535.40,539.59 C535.81,540.66 535.38,540.69 533.20,539.76 C528.98,537.96 528.11,537.03 528.54,534.78 C529.15,531.64 524.07,525.40 521.25,525.81 C520.01,525.99 519.00,526.73 519.00,527.46 C519.00,530.14 516.29,529.69 511.66,526.26 L 506.90 522.74 L 508.95 520.83 C511.23,518.71 511.68,515.99 509.75,516.02 C508.18,516.03 505.14,517.94 506.50,518.05 C507.05,518.10 506.60,518.50 505.50,518.93 C504.06,519.50 502.37,518.95 499.44,516.95 C495.55,514.28 490.79,509.59 493.85,511.43 C494.94,512.09 494.98,511.84 494.06,510.12 C492.70,507.56 488.43,504.61 487.20,505.37 C486.72,505.68 484.86,504.42 483.07,502.57 C481.29,500.73 480.20,499.02 480.66,498.78 C481.12,498.53 480.98,498.45 480.34,498.60 C479.71,498.74 478.36,497.92 477.34,496.76 C476.33,495.60 476.00,494.94 476.60,495.30 C477.21,495.65 478.22,494.81 478.85,493.42 C480.32,490.21 480.30,489.70 478.75,490.66 C478.06,491.09 476.44,491.30 475.14,491.13 C473.40,490.91 472.98,491.18 473.56,492.16 C476.71,497.53 456.18,474.20 450.35,465.78 C448.35,462.90 447.58,460.46 447.41,456.48 C447.11,449.56 446.37,448.35 443.86,450.63 C442.19,452.14 442.00,452.16 442.53,450.77 C442.88,449.88 443.79,448.91 444.58,448.61 C445.36,448.31 446.00,447.20 446.00,446.15 C446.00,444.04 443.69,441.64 442.66,442.68 C442.30,443.04 441.94,442.70 441.87,441.92 C441.80,441.14 441.41,442.08 441.00,444.00 L 440.26 447.50 L 440.13 444.30 C439.93,439.35 441.79,436.09 444.54,436.59 C446.13,436.88 447.45,436.24 448.79,434.54 C449.86,433.18 451.09,432.39 451.53,432.78 C451.96,433.18 451.98,432.91 451.56,432.18 C451.14,431.46 450.19,431.10 449.45,431.38 C448.54,431.73 448.30,431.38 448.72,430.29 C449.18,429.09 448.98,428.89 447.92,429.53 C446.72,430.25 446.73,430.08 447.95,428.44 C451.55,423.60 455.36,420.20 456.62,420.68 C457.37,420.97 457.74,421.61 457.44,422.10 C457.13,422.60 457.96,423.00 459.29,423.00 C461.86,423.00 465.48,419.82 464.28,418.62 C463.89,418.22 464.33,418.19 465.28,418.55 C466.27,418.93 467.00,418.74 467.00,418.11 C467.00,417.50 466.13,417.00 465.07,417.00 C464.01,417.00 462.49,416.35 461.69,415.55 C460.89,414.75 459.85,414.41 459.38,414.80 C458.91,415.18 459.37,414.49 460.42,413.25 C461.46,412.01 463.15,411.00 464.19,411.00 C466.45,411.00 467.63,408.46 466.17,406.70 C465.50,405.90 465.46,404.89 466.04,403.97 C466.55,403.16 467.05,399.58 467.15,396.00 L 467.34 389.50 L 468.00 395.50 C468.37,398.80 468.77,400.60 468.91,399.50 C469.05,398.34 469.37,398.03 469.66,398.76 C469.94,399.45 470.52,399.80 470.94,399.54 C471.36,399.28 472.23,400.20 472.86,401.60 C473.50,402.99 473.61,403.88 473.12,403.57 C472.63,403.27 471.97,404.01 471.65,405.23 C471.33,406.46 471.61,407.76 472.29,408.19 C473.06,408.67 473.62,408.24 473.82,406.97 C474.35,403.72 477.00,404.60 477.00,408.03 C477.00,409.81 477.62,411.30 478.51,411.64 C483.47,413.54 484.86,402.20 480.46,395.73 C479.07,393.68 477.29,392.00 476.51,392.00 C475.74,392.00 474.70,391.28 474.20,390.40 C473.43,389.02 473.01,389.18 471.15,391.53 C469.14,394.09 469.00,394.13 469.00,392.13 C469.00,390.96 469.45,390.00 470.00,390.00 C470.55,390.00 471.00,389.52 471.00,388.94 C471.00,388.36 470.62,388.12 470.15,388.41 C469.68,388.70 468.71,387.15 467.99,384.98 C466.96,381.84 466.41,381.25 465.34,382.13 C464.60,382.74 463.94,382.85 463.87,382.37 C463.31,378.54 463.40,377.00 464.20,377.00 C464.70,377.00 464.84,376.55 464.50,376.00 C463.54,374.45 465.68,374.82 467.36,376.51 C468.19,377.33 469.16,378.92 469.51,380.02 C469.86,381.13 470.56,381.77 471.07,381.46 C471.58,381.14 472.00,381.41 472.00,382.06 C472.00,382.94 472.38,382.93 473.50,382.00 C475.18,380.60 475.47,378.41 474.08,377.55 C473.57,377.24 472.48,377.67 471.64,378.50 C470.28,379.86 470.12,379.83 470.12,378.26 C470.12,377.29 469.75,374.02 469.31,371.00 C468.30,364.11 465.96,363.48 464.72,369.75 C463.73,374.79 461.72,375.29 459.53,371.05 C457.55,367.24 457.61,365.75 459.60,369.00 C460.66,370.73 460.94,370.88 460.48,369.50 C459.61,366.83 458.81,361.97 458.85,359.50 C458.88,357.66 458.71,357.70 456.77,360.00 C455.57,361.43 454.93,361.78 455.28,360.81 C455.61,359.89 455.49,358.99 455.00,358.81 C454.51,358.64 450.05,349.07 445.09,337.55 C436.66,318.00 436.17,316.47 437.68,314.80 C438.85,313.51 439.65,313.30 440.56,314.05 C442.35,315.53 443.52,313.33 441.95,311.44 C441.02,310.32 440.41,310.24 439.35,311.13 C438.28,312.01 437.53,311.88 436.07,310.56 C435.03,309.62 433.57,308.76 432.83,308.65 C432.08,308.54 430.30,307.57 428.87,306.48 C426.28,304.53 426.27,304.50 428.23,302.80 C430.19,301.10 430.17,301.04 426.97,298.12 C423.53,294.98 421.95,294.99 418.40,298.19 C416.85,299.57 413.77,300.32 406.90,300.98 C396.22,302.00 394.34,302.33 393.36,303.30 C392.98,303.69 391.65,304.00 390.40,304.00 C389.16,304.00 387.47,304.67 386.64,305.50 C385.82,306.33 384.66,307.00 384.07,307.00 C383.48,307.00 383.00,307.37 383.00,307.82 C383.00,308.26 381.31,309.59 379.25,310.76 C377.19,311.92 373.21,315.27 370.40,318.19 C364.85,323.98 356.00,335.34 356.00,336.69 C356.00,337.16 354.94,339.10 353.64,341.02 C352.33,342.93 350.10,347.76 348.66,351.75 C337.86,381.71 340.28,411.87 356.50,449.50 C358.87,455.00 361.10,460.17 361.45,461.00 C361.80,461.83 365.15,467.45 368.89,473.50 C373.65,481.19 375.42,484.87 374.74,485.73 C374.06,486.61 374.61,487.45 376.66,488.62 C378.25,489.53 381.11,492.57 383.02,495.38 C388.79,503.84 406.02,525.00 413.73,533.10 C417.71,537.28 420.76,540.91 420.50,541.17 C420.24,541.43 421.37,542.93 423.01,544.51 C424.65,546.09 426.00,548.12 426.00,549.03 C426.00,551.35 429.06,553.86 432.79,554.61 C434.87,555.02 437.19,556.75 439.55,559.62 C441.52,562.03 442.82,564.00 442.43,564.00 C442.04,564.00 441.12,563.21 440.39,562.25 C439.66,561.29 439.05,560.99 439.03,561.58 C439.01,562.18 440.85,564.15 443.10,565.96 C446.20,568.45 446.87,569.47 445.85,570.11 C444.75,570.81 444.78,570.99 446.00,571.10 C446.83,571.17 448.17,571.29 448.98,571.37 C449.80,571.44 451.06,572.74 451.79,574.25 C452.58,575.90 453.91,577.00 455.11,577.00 C456.22,577.00 456.84,576.56 456.51,576.01 C455.11,573.75 460.11,576.80 470.50,584.55 C476.55,589.06 483.57,594.06 486.09,595.65 C489.95,598.08 490.51,598.83 489.61,600.26 C488.80,601.55 488.91,602.34 490.09,603.52 C492.10,605.53 495.63,604.46 493.88,602.36 C492.93,601.21 493.07,601.08 494.61,601.65 C499.66,603.50 512.41,611.71 515.19,614.90 C518.90,619.16 520.85,620.09 523.33,618.80 C524.95,617.95 536.44,621.70 548.50,627.02 C549.60,627.50 551.40,628.05 552.50,628.23 C553.60,628.42 554.39,629.23 554.26,630.04 C554.12,630.96 554.94,631.55 556.51,631.64 C557.87,631.72 558.78,631.45 558.52,631.03 C558.27,630.62 562.21,631.09 567.28,632.07 C572.35,633.05 578.75,634.29 581.50,634.81 L 586.50 635.76 L 582.50 635.95 C580.30,636.06 577.60,636.53 576.50,637.00 C574.56,637.83 574.57,637.86 576.67,637.93 C577.86,637.97 579.66,638.27 580.67,638.59 C582.19,639.09 582.25,639.01 581.00,638.11 C579.79,637.24 580.07,637.03 582.42,637.02 C584.02,637.01 585.04,637.30 584.67,637.66 C583.29,639.04 587.84,640.98 590.99,640.35 C593.22,639.91 593.77,639.47 592.83,638.87 C591.99,638.34 593.05,638.03 595.75,638.02 C598.09,638.01 599.92,638.34 599.82,638.75 C599.72,639.16 600.48,641.19 601.51,643.25 ZM 626.00 641.09 C626.00,641.89 626.63,641.74 627.83,640.65 C628.84,639.74 629.89,639.22 630.17,639.50 C631.09,640.42 637.10,637.80 636.72,636.64 C636.06,634.63 631.57,634.82 629.28,636.96 C628.07,638.08 626.05,638.99 624.79,638.98 C622.95,638.97 622.79,638.78 624.00,638.00 C625.16,637.25 625.19,637.03 624.14,637.02 C623.40,637.01 623.03,636.38 623.32,635.61 C623.66,634.71 623.26,634.34 622.18,634.55 C615.39,635.88 615.18,635.99 615.71,638.00 C616.24,640.01 618.00,640.50 623.25,640.09 C624.86,639.96 626.00,640.38 626.00,641.09 ZM 552.93 880.42 C554.61,882.43 556.43,882.42 559.57,880.36 L 562.08 878.72 L 560.01 876.79 C556.29,873.33 549.80,876.65 552.93,880.42 ZM 745.75 101.30 C747.26,101.54 749.62,101.54 751.00,101.30 C753.75,100.81 756.23,99.00 754.14,99.00 C753.44,99.00 753.20,98.48 753.60,97.84 C754.11,97.01 753.39,96.87 751.03,97.34 C749.23,97.70 745.89,98.05 743.62,98.12 C741.36,98.18 740.29,98.44 741.25,98.69 C742.21,98.94 743.00,99.53 743.00,100.01 C743.00,100.48 744.24,101.06 745.75,101.30 ZM 302.03 102.08 C301.98,104.42 307.33,103.34 310.05,100.45 L 312.25 98.10 L 309.69 97.46 C306.74,96.72 302.08,99.53 302.03,102.08 ZM 762.28 102.03 C762.41,103.80 763.00,104.05 766.38,103.80 C771.17,103.44 772.37,100.54 768.15,99.54 C766.69,99.19 764.60,98.64 763.51,98.31 C761.69,97.76 761.64,97.87 763.01,99.55 C763.83,100.56 763.96,101.06 763.31,100.67 C762.53,100.20 762.17,100.67 762.28,102.03 ZM 449.18 868.50 C451.01,870.28 452.81,871.79 453.19,871.87 C454.65,872.15 454.98,870.04 453.86,867.59 C452.57,864.75 450.17,863.62 447.57,864.61 C446.11,865.17 446.34,865.73 449.18,868.50 ZM 431.95 860.37 C435.12,863.71 437.95,865.35 436.50,863.00 C436.16,862.45 436.41,862.00 437.06,862.00 C437.96,862.00 437.95,861.65 437.04,860.54 C436.37,859.74 436.17,858.54 436.58,857.87 C437.09,857.05 436.82,856.86 435.71,857.28 C434.51,857.74 434.26,857.47 434.74,856.20 C435.29,854.72 435.16,854.68 433.70,855.86 C432.78,856.61 432.30,857.67 432.63,858.21 C432.97,858.76 432.17,858.65 430.87,857.97 C428.97,856.99 429.18,857.46 431.95,860.37 ZM 380.43 306.11 C379.46,307.68 382.17,307.06 385.63,304.92 C387.48,303.77 388.99,302.31 388.98,301.67 C388.98,301.00 388.56,301.14 388.00,302.00 C387.47,302.83 387.02,303.05 387.00,302.50 C386.98,301.95 386.53,302.17 386.00,303.00 C385.45,303.85 385.02,304.00 385.02,303.34 C385.01,302.70 384.21,302.33 383.25,302.51 C382.29,302.70 380.45,302.88 379.17,302.92 C377.75,302.97 377.01,303.49 377.27,304.25 C377.52,304.94 378.45,305.44 379.35,305.36 C380.24,305.29 380.73,305.62 380.43,306.11 ZM 696.73 574.93 C696.36,576.35 696.71,576.82 698.09,576.72 C700.36,576.55 701.20,574.63 700.39,571.42 C699.65,568.48 698.96,568.40 696.73,571.00 C695.79,572.10 695.52,573.00 696.13,573.00 C696.74,573.00 697.01,573.87 696.73,574.93 ZM 599.19 513.25 C598.92,514.67 599.58,515.00 602.71,515.00 C605.76,515.00 606.60,514.61 606.71,513.15 C606.83,511.64 606.17,511.31 603.19,511.40 C600.55,511.47 599.43,511.99 599.19,513.25 ZM 617.63 830.29 C618.64,831.30 624.00,828.09 624.00,826.47 L 624.00 826.35 C624.00,825.75 624.00,825.38 623.82,825.21 C623.51,824.93 622.67,825.22 620.44,826.00 L 620.15 826.10 C617.21,827.12 616.17,828.84 617.63,830.29 ZM 712.46 747.94 C713.38,749.42 714.54,749.26 716.05,747.45 C717.12,746.15 716.99,745.54 715.23,743.78 L 713.12 741.68 L 712.47 744.28 C712.11,745.71 712.11,747.36 712.46,747.94 ZM 573.40 865.61 C573.90,866.90 574.32,866.98 575.47,866.03 C576.61,865.08 576.66,864.54 575.71,863.52 C575.04,862.80 574.11,862.45 573.64,862.73 C573.16,863.02 572.39,862.64 571.92,861.88 C571.22,860.74 570.77,860.81 569.32,862.25 C567.65,863.92 567.70,864.00 570.18,864.00 C571.65,864.00 573.05,864.70 573.40,865.61 ZM 629.54 815.75 C628.71,818.51 631.02,818.84 633.54,816.32 C635.12,814.74 635.11,814.55 633.41,813.31 C631.42,811.85 630.56,812.39 629.54,815.75 ZM 454.50 572.00 C454.84,572.55 454.53,572.98 453.81,572.96 C451.79,572.90 442.21,564.04 444.13,564.02 C445.03,564.01 446.96,565.58 448.43,567.50 C449.90,569.42 451.73,571.00 452.49,571.00 C453.26,571.00 454.16,571.45 454.50,572.00 ZM 622.04 645.54 C623.60,647.43 624.64,647.39 625.40,645.41 C626.15,643.45 625.34,642.00 623.50,642.00 C621.44,642.00 620.66,643.89 622.04,645.54 ZM 98.80 231.44 C99.25,235.25 100.47,236.14 101.23,233.21 C101.81,231.00 100.31,226.69 99.20,227.38 C98.75,227.65 98.57,229.48 98.80,231.44 ZM 857.67 145.33 C857.98,145.65 858.17,145.84 858.39,145.91 C858.75,146.03 859.21,145.86 860.41,145.40 L 860.46 145.38 C861.95,144.81 861.94,144.59 860.39,142.88 C859.45,141.84 858.31,141.00 857.85,141.00 C856.84,141.00 856.71,144.37 857.67,145.33 ZM 571.89 879.75 C571.14,880.99 570.16,882.00 569.73,882.00 C568.37,882.00 567.57,878.64 568.83,878.22 C569.48,878.01 569.75,877.31 569.43,876.66 C569.11,876.02 569.49,876.28 570.27,877.23 C571.06,878.19 572.05,878.64 572.48,878.23 C572.91,877.83 572.65,878.51 571.89,879.75 ZM 295.79 729.00 C295.33,732.12 295.67,732.50 297.71,731.20 C298.97,730.40 298.37,726.00 297.00,726.00 C296.57,726.00 296.03,727.35 295.79,729.00 ZM 555.47 183.96 C555.83,184.53 556.56,185.00 557.09,185.00 C558.54,185.00 559.41,182.01 558.29,180.89 C557.08,179.68 554.54,182.44 555.47,183.96 ZM 514.00 622.11 C514.00,622.60 515.45,623.00 517.21,623.00 C520.11,623.00 520.27,622.85 518.89,621.46 C517.36,619.93 514.00,620.38 514.00,622.11 ZM 840.00 139.00 C840.00,140.92 841.96,141.71 843.32,140.34 C844.08,139.58 842.19,137.00 840.88,137.00 C840.39,137.00 840.00,137.90 840.00,139.00 ZM 529.71 212.00 C529.32,213.48 529.68,214.00 531.09,214.00 C533.20,214.00 533.27,213.87 532.39,211.58 C531.56,209.41 530.34,209.60 529.71,212.00 ZM 229.07 655.59 C230.58,657.41 232.00,657.40 232.00,655.56 C232.00,653.77 230.35,652.67 228.95,653.53 C228.23,653.97 228.27,654.62 229.07,655.59 ZM 702.64 551.31 C703.57,552.24 705.00,551.11 705.00,549.44 C705.00,548.65 704.33,548.00 703.50,548.00 C701.99,548.00 701.44,550.11 702.64,551.31 ZM 75.00 310.50 C75.00,311.88 75.45,313.00 76.00,313.00 C76.55,313.00 77.00,311.88 77.00,310.50 C77.00,309.12 76.55,308.00 76.00,308.00 C75.45,308.00 75.00,309.12 75.00,310.50 ZM 752.72 708.70 C752.29,710.96 752.35,710.99 754.13,709.38 C756.36,707.36 756.51,706.33 754.58,706.33 C753.81,706.33 752.97,707.40 752.72,708.70 ZM 693.43 98.89 C693.43,100.99 695.53,100.66 696.39,98.42 C696.74,97.53 696.29,97.00 695.18,97.00 C694.13,97.00 693.43,97.75 693.43,98.89 ZM 76.46 376.93 C77.29,378.28 78.69,378.30 79.50,376.99 C79.85,376.44 79.40,375.71 78.52,375.37 C76.61,374.63 75.54,375.44 76.46,376.93 ZM 187.61 130.42 C188.30,132.22 189.59,132.48 190.50,131.00 C190.84,130.45 190.39,130.00 189.50,130.00 C188.61,130.00 188.16,129.55 188.50,129.00 C188.84,128.45 188.64,128.00 188.06,128.00 C186.83,128.00 186.78,128.27 187.61,130.42 ZM 338.00 365.61 C338.00,367.77 340.56,367.25 340.72,365.06 C340.82,363.75 340.40,363.29 339.43,363.66 C338.65,363.97 338.00,364.84 338.00,365.61 ZM 550.65 184.53 C550.94,185.30 551.86,185.61 552.78,185.25 C553.83,184.85 553.98,184.49 553.19,184.23 C552.53,184.01 552.24,183.42 552.55,182.91 C552.86,182.41 552.72,182.00 552.23,182.00 C550.78,182.00 550.10,183.10 550.65,184.53 ZM 943.63 387.48 C944.04,388.55 944.61,388.79 945.24,388.16 C945.86,387.54 945.86,386.58 945.24,385.47 C944.07,383.37 942.71,385.07 943.63,387.48 ZM 564.15 540.10 C565.86,541.15 567.04,540.26 566.34,538.44 C565.89,537.27 565.46,537.20 564.34,538.14 C563.22,539.06 563.18,539.49 564.15,540.10 ZM 195.50 623.00 C195.98,623.78 196.56,623.84 197.23,623.17 C197.78,622.62 197.90,621.65 197.50,621.00 C197.02,620.22 196.44,620.16 195.77,620.83 C195.22,621.38 195.10,622.35 195.50,623.00 ZM 139.02 175.31 C139.03,177.09 139.21,177.22 140.00,176.00 C141.27,174.03 141.27,171.71 140.00,172.50 C139.45,172.84 139.01,174.10 139.02,175.31 ZM 403.00 828.00 C403.00,828.55 403.67,829.00 404.50,829.00 C405.33,829.00 406.00,828.55 406.00,828.00 C406.00,827.45 405.33,827.00 404.50,827.00 C403.67,827.00 403.00,827.45 403.00,828.00 ZM 495.00 501.00 C495.00,501.55 495.67,502.00 496.50,502.00 C497.33,502.00 498.00,501.55 498.00,501.00 C498.00,500.45 497.33,500.00 496.50,500.00 C495.67,500.00 495.00,500.45 495.00,501.00 ZM 459.00 365.11 C459.00,366.54 457.26,366.13 456.66,364.55 C456.29,363.58 456.58,363.29 457.55,363.66 C458.35,363.96 459.00,364.62 459.00,365.11 ZM 75.00 323.56 C75.00,324.42 75.45,324.84 76.00,324.50 C76.55,324.16 77.00,323.46 77.00,322.94 C77.00,322.42 76.55,322.00 76.00,322.00 C75.45,322.00 75.00,322.70 75.00,323.56 ZM 641.00 628.94 C641.00,629.46 640.55,630.16 640.00,630.50 C639.45,630.84 639.00,630.42 639.00,629.56 C639.00,628.70 639.45,628.00 640.00,628.00 C640.55,628.00 641.00,628.42 641.00,628.94 ZM 733.00 729.11 C733.00,730.39 733.58,730.21 735.02,728.48 C736.08,727.20 736.01,727.06 734.64,727.58 C733.74,727.93 733.00,728.62 733.00,729.11 ZM 246.00 104.00 C246.00,104.55 245.55,105.00 245.00,105.00 C244.45,105.00 244.00,104.55 244.00,104.00 C244.00,103.45 244.45,103.00 245.00,103.00 C245.55,103.00 246.00,103.45 246.00,104.00 ZM 571.53 539.19 C571.83,539.50 571.28,540.06 570.29,540.44 C568.87,540.98 568.75,540.86 569.73,539.88 C570.41,539.19 571.22,538.89 571.53,539.19 Z" fill="rgb(34,177,60)"/>
<path d="M 466.86 400.13 C466.90,398.95 466.81,397.50 466.67,395.50 C466.41,391.65 465.63,387.15 464.95,385.50 C464.27,383.85 463.16,381.15 462.47,379.50 C461.78,377.85 459.64,372.67 457.73,368.00 C445.28,337.66 436.41,317.77 433.20,313.03 C426.68,303.38 420.03,300.51 406.05,301.30 C402.99,301.47 400.01,301.71 398.08,301.92 C400.03,301.66 402.82,301.37 406.90,300.98 C413.77,300.32 416.85,299.57 418.40,298.19 C421.95,294.99 423.53,294.98 426.97,298.12 C430.17,301.04 430.19,301.10 428.23,302.80 C426.27,304.50 426.28,304.53 428.87,306.48 C430.30,307.57 432.08,308.54 432.83,308.65 C433.57,308.76 435.03,309.62 436.07,310.56 C437.53,311.88 438.28,312.01 439.35,311.13 C440.41,310.24 441.02,310.32 441.95,311.44 C443.52,313.33 442.35,315.53 440.56,314.05 C439.65,313.30 438.85,313.51 437.68,314.80 C436.17,316.47 436.66,318.00 445.09,337.55 C450.05,349.07 454.51,358.64 455.00,358.81 C455.49,358.99 455.61,359.89 455.28,360.81 C454.93,361.78 455.57,361.43 456.77,360.00 C458.71,357.70 458.88,357.66 458.85,359.50 C458.81,361.97 459.61,366.83 460.48,369.50 C460.94,370.88 460.66,370.73 459.60,369.00 C457.61,365.75 457.55,367.24 459.53,371.05 C461.72,375.29 463.73,374.79 464.72,369.75 C465.96,363.48 468.30,364.11 469.31,371.00 C469.75,374.02 470.12,377.29 470.12,378.26 C470.12,379.83 470.28,379.86 471.64,378.50 C472.48,377.67 473.57,377.24 474.08,377.55 C475.47,378.41 475.18,380.60 473.50,382.00 C472.38,382.93 472.00,382.94 472.00,382.06 C472.00,381.41 471.58,381.14 471.07,381.46 C470.56,381.77 469.86,381.13 469.51,380.02 C469.16,378.92 468.19,377.33 467.36,376.51 C465.68,374.82 463.54,374.45 464.50,376.00 C464.84,376.55 464.70,377.00 464.20,377.00 C463.40,377.00 463.31,378.54 463.87,382.37 C463.94,382.85 464.60,382.74 465.34,382.13 C466.41,381.25 466.96,381.84 467.99,384.98 C468.71,387.15 469.68,388.70 470.15,388.41 C470.62,388.12 471.00,388.36 471.00,388.94 C471.00,389.52 470.55,390.00 470.00,390.00 C469.45,390.00 469.00,390.96 469.00,392.13 C469.00,394.13 469.14,394.09 471.15,391.53 C473.01,389.18 473.43,389.02 474.20,390.40 C474.70,391.28 475.74,392.00 476.51,392.00 C477.29,392.00 479.07,393.68 480.46,395.73 C484.86,402.20 483.47,413.54 478.51,411.64 C477.62,411.30 477.00,409.81 477.00,408.03 C477.00,404.60 474.35,403.72 473.82,406.97 C473.62,408.24 473.06,408.67 472.29,408.19 C471.61,407.76 471.33,406.46 471.65,405.23 C471.97,404.01 472.63,403.27 473.12,403.57 C473.61,403.88 473.50,402.99 472.86,401.60 C472.23,400.20 471.36,399.28 470.94,399.54 C470.52,399.80 469.94,399.45 469.66,398.76 C469.37,398.03 469.05,398.34 468.91,399.50 C468.77,400.60 468.37,398.80 468.00,395.50 L 467.34 389.50 L 467.15 396.00 C467.11,397.43 467.01,398.87 466.86,400.13 ZM 515.07 917.75 C515.72,916.24 516.73,915.00 517.33,915.00 C517.93,915.00 519.42,916.24 520.64,917.75 C522.72,920.34 522.99,920.41 525.34,919.00 C526.71,918.17 529.68,915.79 531.93,913.70 C535.35,910.53 535.85,909.59 534.99,907.98 C534.19,906.50 533.28,906.19 530.98,906.65 C527.54,907.34 526.91,905.65 530.00,904.00 C532.20,902.82 536.51,904.37 535.51,905.98 C535.22,906.46 535.87,907.14 536.98,907.49 C538.12,907.86 539.89,907.04 543.53,904.31 C537.84,908.94 532.66,913.19 531.07,914.55 C529.11,916.22 524.51,919.94 520.86,922.80 C517.21,925.66 513.53,928.00 512.68,928.00 C510.21,928.00 489.41,911.43 457.55,884.06 C448.22,876.05 437.20,866.59 433.05,863.04 C418.58,850.65 373.00,809.63 358.50,795.95 C357.82,795.31 356.45,794.01 354.56,792.23 C385.85,821.42 392.48,826.93 394.25,826.40 C395.48,826.02 396.00,826.42 396.00,827.75 C396.00,830.26 401.47,835.45 403.07,834.45 C403.87,833.96 404.05,834.10 403.60,834.85 C403.17,835.54 403.53,836.00 404.50,836.00 C405.47,836.00 405.83,836.46 405.40,837.15 C404.95,837.89 405.13,838.04 405.91,837.55 C406.59,837.14 406.91,836.22 406.64,835.51 C406.31,834.64 406.79,834.39 408.11,834.74 C409.90,835.21 409.94,835.44 408.58,837.51 C407.24,839.56 407.28,839.94 408.97,841.47 C410.48,842.84 411.24,842.94 412.99,842.00 C414.95,840.95 415.06,841.03 414.11,842.79 C413.27,844.36 413.57,845.17 415.76,847.11 C417.23,848.43 417.87,848.75 417.17,847.83 C416.09,846.42 416.20,846.07 417.91,845.53 C420.48,844.71 424.32,846.68 423.31,848.30 C421.37,851.40 422.42,853.13 430.77,860.59 C442.80,871.33 444.43,872.69 443.60,871.25 C442.33,869.04 444.83,869.91 448.22,872.85 C450.02,874.42 452.02,875.52 452.66,875.30 C453.30,875.08 454.15,875.44 454.56,876.10 C455.04,876.87 454.89,877.05 454.15,876.60 C453.52,876.20 452.52,876.18 451.92,876.55 C450.47,877.44 454.80,882.00 457.11,882.00 C458.07,882.00 460.52,884.02 462.55,886.49 C464.57,888.96 466.59,890.75 467.04,890.47 C467.49,890.20 468.19,890.49 468.59,891.14 C469.07,891.93 468.85,892.05 467.90,891.51 C467.03,891.02 467.13,891.39 468.17,892.49 C469.09,893.47 470.89,894.32 472.17,894.38 C473.65,894.46 474.50,895.12 474.51,896.21 C474.52,897.15 475.15,898.50 475.91,899.21 C476.68,899.93 477.01,899.99 476.65,899.35 C476.30,898.72 476.71,897.94 477.56,897.62 C478.44,897.28 478.84,897.45 478.49,898.01 C477.62,899.42 479.35,899.24 480.93,897.75 C481.66,897.06 481.53,897.65 480.63,899.08 C479.08,901.52 479.11,901.75 481.25,903.68 C482.49,904.79 484.17,906.08 485.00,906.54 C486.29,907.27 486.31,907.15 485.13,905.69 C483.91,904.19 484.04,904.00 486.31,904.00 C489.02,904.00 492.37,906.59 491.49,908.01 C490.62,909.42 493.09,910.32 494.34,909.05 C495.22,908.15 495.09,907.56 493.78,906.60 C491.78,905.12 493.20,903.00 496.20,903.00 C498.15,903.00 498.62,904.50 497.00,905.50 C496.34,905.91 496.37,906.82 497.10,908.18 C497.72,909.35 497.77,909.98 497.21,909.63 C495.61,908.64 494.15,911.30 495.03,913.61 C495.47,914.77 497.04,916.68 498.52,917.84 C500.64,919.50 501.63,919.73 503.17,918.91 C505.40,917.72 505.12,915.51 502.73,915.49 C501.86,915.48 500.88,915.14 500.57,914.74 C500.26,914.33 500.30,914.22 500.66,914.49 C501.02,914.76 501.96,914.45 502.75,913.79 C503.89,912.84 504.38,912.93 505.09,914.20 C505.65,915.19 506.77,915.61 508.00,915.29 C510.47,914.64 510.74,917.50 508.50,920.69 C507.35,922.33 507.29,922.93 508.25,923.26 C510.07,923.88 513.72,920.93 515.07,917.75 ZM 283.94 94.62 C282.04,94.88 281.45,95.24 282.76,95.71 C283.45,95.97 283.72,96.65 283.36,97.23 C282.92,97.94 283.65,98.06 285.60,97.57 C287.20,97.18 288.65,96.44 288.83,95.93 C289.02,95.42 292.17,95.08 295.83,95.17 L 302.50 95.34 L 296.50 96.00 C292.78,96.41 291.64,96.77 293.50,96.95 C296.36,97.22 296.32,97.27 292.50,98.13 C287.23,99.33 284.53,99.66 278.44,99.84 C274.92,99.95 272.72,100.61 271.23,102.00 C268.69,104.37 267.65,104.49 266.07,102.59 C265.15,101.48 265.33,100.88 266.95,99.75 C268.07,98.96 268.69,98.02 268.33,97.66 C267.96,97.30 268.89,97.00 270.39,97.00 C271.95,97.00 272.85,97.43 272.50,98.00 C272.16,98.55 272.56,99.00 273.39,99.00 C274.22,99.00 275.26,98.37 275.70,97.60 C276.14,96.82 277.62,95.95 279.00,95.65 C280.38,95.35 278.35,95.31 274.50,95.56 C262.59,96.33 240.50,101.38 241.56,103.10 C241.96,103.75 242.65,103.70 243.54,102.97 C244.29,102.34 245.88,102.14 247.08,102.52 C248.46,102.96 249.02,102.84 248.62,102.19 C248.26,101.61 249.35,100.86 251.12,100.47 C253.27,100.00 254.51,100.20 255.07,101.12 C255.52,101.85 255.52,102.68 255.06,102.97 C254.61,103.26 254.06,104.39 253.85,105.49 C253.41,107.84 250.59,108.60 247.62,107.19 C243.16,105.07 241.75,104.89 242.38,106.54 C242.73,107.46 242.56,107.85 241.96,107.48 C241.41,107.13 239.74,108.23 238.25,109.93 C235.50,113.06 231.00,114.13 231.00,111.65 C231.00,110.92 231.92,109.48 233.04,108.47 C234.77,106.90 234.85,106.50 233.58,105.79 C231.98,104.89 220.27,108.34 218.50,110.23 C217.82,110.96 217.89,111.07 218.74,110.59 C219.60,110.11 219.78,110.42 219.31,111.62 C218.79,112.98 219.04,113.20 220.47,112.65 C221.47,112.27 223.20,112.25 224.33,112.60 C226.31,113.23 226.32,113.29 224.50,114.63 C222.07,116.40 221.50,116.36 219.39,114.25 C217.58,112.43 212.68,111.68 213.73,113.37 C214.08,113.93 213.62,114.07 212.64,113.69 C210.79,112.98 201.82,116.90 202.56,118.09 C203.57,119.73 199.66,122.18 196.92,121.63 C194.07,121.06 189.97,123.45 187.12,127.32 C186.24,128.53 185.50,128.82 185.08,128.12 C184.65,127.43 182.50,128.33 179.14,130.59 C173.88,134.14 173.87,134.15 175.53,136.68 C176.73,138.51 176.88,139.52 176.09,140.31 C174.70,141.70 172.96,140.11 172.74,137.23 C172.59,135.17 172.57,135.17 169.87,137.09 C168.38,138.15 166.08,140.26 164.76,141.76 C161.42,145.58 155.51,150.81 156.53,149.05 C157.87,146.73 151.91,151.39 147.50,156.12 C145.30,158.48 144.22,159.87 145.09,159.21 C145.97,158.55 147.05,158.35 147.50,158.76 C147.95,159.17 148.03,158.99 147.67,158.36 C147.31,157.74 147.63,156.72 148.37,156.10 C150.58,154.28 149.15,159.55 146.89,161.60 C145.85,162.54 145.00,163.00 145.00,162.62 C145.00,162.24 143.99,162.47 142.75,163.13 C140.63,164.26 140.59,164.21 141.96,162.41 C142.76,161.36 141.78,162.02 139.78,163.87 C137.79,165.72 136.36,167.77 136.60,168.41 C136.85,169.05 135.59,170.91 133.81,172.54 C132.03,174.17 131.23,174.60 132.04,173.50 C133.42,171.61 133.39,171.58 131.60,173.00 C129.54,174.62 118.51,189.06 112.79,197.54 C130.55,170.42 153.38,147.24 179.48,130.20 C198.94,117.49 227.32,104.60 244.00,100.89 C265.17,96.18 271.10,94.94 283.94,94.62 ZM 601.51 643.25 C600.48,641.19 599.72,639.16 599.82,638.75 C599.92,638.34 598.09,638.01 595.75,638.02 C593.05,638.03 591.99,638.34 592.83,638.87 C593.77,639.47 593.22,639.91 590.99,640.35 C587.84,640.98 583.29,639.04 584.67,637.66 C585.04,637.30 584.02,637.01 582.42,637.02 C580.07,637.03 579.79,637.24 581.00,638.11 C582.25,639.01 582.19,639.09 580.67,638.59 C579.66,638.27 577.86,637.97 576.67,637.93 C574.57,637.86 574.56,637.83 576.50,637.00 C577.60,636.53 580.30,636.06 582.50,635.95 L 586.50 635.76 L 581.50 634.81 C580.29,634.58 578.37,634.21 576.17,633.79 C587.25,635.15 609.57,635.29 617.92,633.91 C634.09,631.24 653.47,621.96 666.86,611.01 C664.04,613.68 663.44,614.82 664.14,615.66 C665.53,617.34 668.18,617.38 669.99,615.75 C670.91,614.92 670.83,615.34 669.77,617.00 C668.88,618.38 667.56,619.34 666.83,619.15 C662.50,618.01 660.82,618.35 659.98,620.54 C659.51,621.80 658.14,623.14 656.96,623.51 C654.89,624.17 650.34,628.00 651.62,628.00 C651.96,628.00 651.68,628.67 651.00,629.50 C648.98,631.93 647.81,631.21 649.53,628.59 C650.60,626.97 650.76,625.97 650.04,625.52 C649.45,625.16 649.25,624.40 649.60,623.83 C649.99,623.21 649.38,623.26 648.09,623.95 C646.90,624.59 646.00,625.64 646.09,626.30 C646.57,630.16 645.99,631.04 643.39,630.38 C641.02,629.79 640.85,629.94 641.50,632.02 C642.07,633.80 641.91,634.18 640.74,633.73 C639.92,633.41 638.77,633.63 638.19,634.21 C637.44,634.96 636.62,634.76 635.40,633.55 C633.50,631.64 632.06,631.70 616.00,634.39 C610.78,635.27 602.45,636.08 597.50,636.19 L 588.50 636.39 L 598.50 637.00 C604.00,637.34 606.92,637.78 605.00,637.97 C602.24,638.26 602.77,638.46 607.50,638.92 C611.91,639.35 613.50,639.90 613.50,641.00 C613.50,641.84 612.40,642.65 611.02,642.85 C609.66,643.04 607.95,644.05 607.22,645.10 C605.22,647.95 603.58,647.42 601.51,643.25 ZM 535.35 621.75 C529.05,619.50 524.33,618.28 523.33,618.80 C520.85,620.09 518.90,619.16 515.19,614.90 C512.41,611.71 499.66,603.50 494.61,601.65 C493.07,601.08 492.93,601.21 493.88,602.36 C495.63,604.46 492.10,605.53 490.09,603.52 C488.91,602.34 488.80,601.55 489.61,600.26 C490.51,598.83 489.95,598.08 486.09,595.65 C483.57,594.06 476.55,589.06 470.50,584.55 C460.11,576.80 455.11,573.75 456.51,576.01 C456.84,576.56 456.22,577.00 455.11,577.00 C453.91,577.00 452.58,575.90 451.79,574.25 C451.06,572.74 449.80,571.44 448.98,571.37 C448.17,571.29 446.83,571.17 446.00,571.10 C444.78,570.99 444.75,570.81 445.85,570.11 C446.87,569.47 446.20,568.45 443.10,565.96 C440.85,564.15 439.01,562.18 439.03,561.58 C439.05,560.99 439.66,561.29 440.39,562.25 C441.12,563.21 442.04,564.00 442.43,564.00 C442.82,564.00 441.52,562.03 439.55,559.62 C437.19,556.75 434.87,555.02 432.79,554.61 C429.06,553.86 426.00,551.35 426.00,549.03 C426.00,548.12 424.65,546.09 423.01,544.51 C421.37,542.93 420.24,541.43 420.50,541.17 C420.76,540.91 417.71,537.28 413.73,533.10 C406.02,525.00 388.79,503.84 383.02,495.38 C381.11,492.57 378.25,489.53 376.66,488.62 C374.61,487.45 374.06,486.61 374.74,485.73 C375.42,484.87 373.65,481.19 368.89,473.50 C365.15,467.45 361.80,461.83 361.45,461.00 C361.36,460.81 361.19,460.39 360.93,459.79 C361.38,460.74 361.77,461.49 362.07,462.00 C362.56,462.83 364.83,466.65 367.11,470.50 C383.72,498.54 403.31,523.21 428.69,548.04 C460.26,578.93 487.92,599.20 519.00,614.26 C524.42,616.88 530.80,619.80 535.35,621.75 ZM 551.68 897.67 C557.78,892.41 560.77,889.00 559.18,889.00 C558.04,889.00 558.80,885.24 560.10,884.44 C560.57,884.15 561.84,884.38 562.92,884.96 C564.33,885.71 565.08,885.68 565.59,884.85 C566.02,884.15 565.87,883.96 565.22,884.37 C564.57,884.76 564.15,884.31 564.19,883.27 C564.23,882.30 563.93,880.71 563.53,879.75 C563.12,878.79 563.22,878.00 563.74,878.00 C564.26,878.00 565.75,877.08 567.04,875.97 C568.35,874.83 570.07,874.20 570.94,874.54 C573.73,875.63 574.41,875.52 574.45,874.00 C574.48,873.17 575.17,872.50 576.00,872.50 C578.13,872.50 581.00,869.86 581.00,867.90 C581.00,866.99 581.62,865.73 582.37,865.11 C583.85,863.88 587.32,864.67 586.48,866.04 C586.20,866.49 587.28,866.21 588.88,865.41 C591.83,863.94 596.26,858.58 593.72,859.55 C593.02,859.82 591.56,859.39 590.47,858.59 C588.58,857.20 588.57,857.11 590.35,856.43 C591.37,856.03 592.49,856.11 592.85,856.60 C593.79,857.90 596.96,857.96 596.71,856.68 C596.51,855.65 597.05,855.42 600.41,855.12 C601.01,855.07 604.33,852.52 608.45,849.00 C599.93,856.59 592.73,862.94 588.46,866.59 C585.18,869.39 577.55,875.93 571.50,881.12 C566.53,885.38 558.38,892.18 551.68,897.67 ZM 543.05 545.31 L 543.00 545.29 C514.57,531.23 485.44,508.34 465.16,484.13 C463.73,482.43 462.38,480.81 461.10,479.26 C468.26,487.68 475.53,495.52 473.56,492.16 C472.98,491.18 473.40,490.91 475.14,491.13 C476.44,491.30 478.06,491.09 478.75,490.66 C480.30,489.70 480.32,490.21 478.85,493.42 C478.22,494.81 477.21,495.65 476.60,495.30 C476.00,494.94 476.33,495.60 477.34,496.76 C478.36,497.92 479.71,498.74 480.34,498.60 C480.98,498.45 481.12,498.53 480.66,498.78 C480.20,499.02 481.29,500.73 483.07,502.57 C484.86,504.42 486.72,505.68 487.20,505.37 C488.43,504.61 492.70,507.56 494.06,510.12 C494.98,511.84 494.94,512.09 493.85,511.43 C490.79,509.59 495.55,514.28 499.44,516.95 C502.37,518.95 504.06,519.50 505.50,518.93 C506.60,518.50 507.05,518.10 506.50,518.05 C505.14,517.94 508.18,516.03 509.75,516.02 C511.68,515.99 511.23,518.71 508.95,520.83 L 506.90 522.74 L 511.66 526.26 C516.29,529.69 519.00,530.14 519.00,527.46 C519.00,526.73 520.01,525.99 521.25,525.81 C524.07,525.40 529.15,531.64 528.54,534.78 C528.11,537.03 528.98,537.96 533.20,539.76 C535.38,540.69 535.81,540.66 535.40,539.59 C534.68,537.73 539.65,538.38 541.94,540.45 C543.00,541.40 544.47,541.79 545.61,541.40 C547.12,540.89 547.04,541.09 545.25,542.43 C544.01,543.36 543.00,544.53 543.00,545.04 C543.00,545.13 543.02,545.22 543.05,545.31 ZM 274.22 714.52 C259.02,699.23 245.18,684.97 236.95,676.00 C219.77,657.27 191.02,624.23 181.30,612.03 C178.44,608.44 175.06,604.22 173.80,602.66 C172.53,601.09 170.60,598.56 169.50,597.02 C168.74,595.96 166.13,592.37 162.94,588.02 C168.68,595.81 169.63,596.89 170.57,596.88 C170.75,596.87 170.93,596.83 171.14,596.79 C171.95,596.62 172.62,597.51 172.79,599.00 C172.95,600.38 174.67,603.30 176.62,605.50 C178.56,607.70 179.80,608.83 179.38,608.00 C178.74,606.74 178.87,606.71 180.21,607.79 C181.51,608.85 181.90,608.85 182.32,607.79 C182.61,607.08 182.88,607.44 182.92,608.60 C182.96,609.75 183.89,611.49 184.98,612.48 C186.06,613.46 186.74,614.61 186.48,615.03 C185.84,616.07 188.67,617.06 190.40,616.40 C192.66,615.53 193.35,617.96 191.44,620.06 C189.89,621.78 189.86,622.20 191.17,623.75 C209.88,645.87 226.81,664.86 225.51,662.25 C224.15,659.53 227.00,661.21 229.75,664.75 C233.81,669.97 234.66,671.52 232.90,670.47 C232.13,670.01 235.38,673.88 240.13,679.07 C244.87,684.26 249.24,688.50 249.83,688.50 C250.42,688.50 251.46,689.06 252.15,689.75 C252.84,690.44 252.99,691.00 252.49,691.00 C251.99,691.00 253.55,693.01 255.96,695.46 C258.36,697.91 260.67,699.70 261.09,699.45 C262.01,698.87 266.14,703.96 265.54,704.93 C265.38,705.19 268.90,709.06 274.22,714.52 ZM 707.52 757.62 C707.90,756.96 707.42,756.74 706.32,756.43 C703.47,755.61 702.64,753.33 704.96,752.72 C707.27,752.12 709.47,753.43 708.57,754.89 C708.19,755.50 708.28,756.00 708.76,756.00 C709.25,756.00 712.30,752.96 715.55,749.25 C718.80,745.54 720.64,743.15 719.63,743.95 C717.96,745.28 717.84,745.20 718.15,743.02 C718.39,741.39 719.39,740.40 721.32,739.89 C723.84,739.22 724.00,739.31 722.85,740.82 C722.15,741.74 723.00,741.20 724.74,739.61 C726.48,738.02 727.81,736.44 727.70,736.11 C727.59,735.77 727.95,735.38 728.50,735.23 C730.51,734.67 742.88,721.62 742.30,720.67 C741.96,720.13 742.16,719.98 742.73,720.33 C743.30,720.69 744.33,720.31 745.01,719.49 C745.99,718.31 745.99,717.69 745.00,716.50 C744.32,715.67 743.92,714.96 744.13,714.92 C746.89,714.30 748.79,714.53 748.26,715.42 C747.06,717.43 766.60,698.58 776.68,688.00 C777.39,687.26 778.10,686.51 778.81,685.76 C775.95,688.81 773.05,691.88 770.10,695.00 C760.97,704.62 750.58,715.59 747.00,719.37 C743.31,723.28 728.48,737.62 707.52,757.62 ZM 440.25 447.06 C440.07,446.00 440.00,444.95 440.00,443.89 C440.00,437.76 440.07,437.64 452.19,422.78 C456.42,417.60 461.52,410.91 463.52,407.93 C465.08,405.60 465.97,404.22 466.43,402.81 C466.31,403.36 466.18,403.76 466.04,403.97 C465.46,404.89 465.50,405.90 466.17,406.70 C467.63,408.46 466.45,411.00 464.19,411.00 C463.15,411.00 461.46,412.01 460.42,413.25 C459.37,414.49 458.91,415.18 459.38,414.80 C459.85,414.41 460.89,414.75 461.69,415.55 C462.49,416.35 464.01,417.00 465.07,417.00 C466.13,417.00 467.00,417.50 467.00,418.11 C467.00,418.74 466.27,418.93 465.28,418.55 C464.33,418.19 463.89,418.22 464.28,418.62 C465.48,419.82 461.86,423.00 459.29,423.00 C457.96,423.00 457.13,422.60 457.44,422.10 C457.74,421.61 457.37,420.97 456.62,420.68 C455.36,420.20 451.55,423.60 447.95,428.44 C446.73,430.08 446.72,430.25 447.92,429.53 C448.98,428.89 449.18,429.09 448.72,430.29 C448.30,431.38 448.54,431.73 449.45,431.38 C450.19,431.10 451.14,431.46 451.56,432.18 C451.98,432.91 451.96,433.18 451.53,432.78 C451.09,432.39 449.86,433.18 448.79,434.54 C447.45,436.24 446.13,436.88 444.54,436.59 C441.79,436.09 439.93,439.35 440.13,444.30 ZM 848.79 132.99 C848.32,132.66 847.85,132.33 847.37,132.00 C836.59,124.47 826.27,118.60 815.00,113.57 C813.95,113.10 812.96,112.66 812.05,112.25 C803.04,108.23 800.34,107.02 798.00,107.51 C796.77,107.76 795.63,108.49 793.71,109.52 L 788.50 112.31 L 790.92 109.65 C792.26,108.19 792.93,106.99 792.42,106.98 C791.92,106.98 792.11,106.58 792.85,106.11 C793.79,105.52 792.29,104.61 787.91,103.13 C782.62,101.34 774.89,100.10 778.74,101.66 C780.84,102.51 777.32,105.24 775.05,104.52 C772.79,103.80 773.37,101.00 775.77,101.00 C776.63,101.00 777.04,100.71 776.68,100.35 C775.71,99.37 763.97,97.12 751.50,95.51 C738.67,93.85 709.42,93.51 708.50,95.00 C708.16,95.55 708.39,96.00 709.01,96.00 C709.63,96.00 710.84,96.70 711.70,97.55 C712.77,98.63 714.16,98.90 716.25,98.45 C718.32,97.99 719.04,98.13 718.57,98.89 C718.19,99.50 718.36,100.00 718.94,100.00 C719.52,100.00 720.00,100.42 720.00,100.92 C720.00,101.43 716.92,101.80 713.16,101.74 C706.62,101.64 706.33,101.53 706.57,99.32 C706.71,98.04 706.30,96.99 705.66,96.98 C705.00,96.98 705.15,96.55 706.00,96.00 C708.53,94.37 699.37,94.81 687.92,96.88 C687.72,96.92 687.53,96.95 687.33,96.99 C689.10,96.63 690.75,96.31 692.20,96.06 C706.62,93.52 733.23,93.28 752.17,95.51 C785.73,99.46 819.49,112.40 847.36,131.98 C847.84,132.32 848.32,132.65 848.79,132.99 ZM 688.53 542.37 C685.23,540.00 679.94,537.75 671.67,535.18 C673.53,535.66 675.09,536.00 675.70,536.00 C676.18,536.00 676.68,534.56 676.82,532.80 C676.95,531.04 677.28,529.39 677.54,529.13 C677.80,528.86 680.60,529.53 683.76,530.61 C688.18,532.12 689.43,532.98 689.19,534.36 C689.02,535.34 689.43,536.81 690.10,537.62 C692.24,540.20 689.65,541.47 686.48,539.40 C685.27,538.60 686.19,539.89 688.53,542.37 ZM 599.53 516.92 C589.43,516.59 584.87,521.10 576.97,532.54 C567.35,546.47 564.70,548.50 556.08,548.50 C551.75,548.50 549.38,548.13 545.87,546.62 C547.23,546.79 548.73,546.64 549.47,546.03 C550.26,545.37 551.43,545.15 552.06,545.54 C552.90,546.06 552.84,546.48 551.86,547.11 C551.01,547.64 552.58,547.94 556.00,547.89 C560.25,547.82 560.93,547.62 559.00,547.00 C557.62,546.56 557.01,546.15 557.63,546.10 C558.26,546.04 559.01,545.07 559.31,543.93 C559.76,542.19 560.18,542.03 561.86,542.93 C564.67,544.43 566.64,544.26 566.83,542.50 C566.92,541.67 567.08,540.34 567.17,539.54 C567.26,538.74 567.73,538.33 568.22,538.64 C569.92,539.68 575.53,534.74 579.87,528.38 C582.27,524.85 585.54,521.21 587.12,520.27 C588.70,519.33 590.00,518.05 590.00,517.41 C590.00,515.08 592.41,514.09 594.44,515.58 C595.27,516.19 597.35,516.71 599.53,516.92 ZM 637.83 525.41 C634.06,524.46 628.72,523.08 623.16,521.61 C613.55,519.05 606.61,517.43 601.20,517.01 C601.28,517.01 601.36,517.01 601.44,517.01 C604.22,517.02 608.69,517.69 611.37,518.50 C617.15,520.25 618.67,519.68 616.61,516.52 C614.72,513.64 615.36,513.00 620.17,513.00 C623.79,513.00 625.15,514.17 623.04,515.48 C621.60,516.36 624.09,521.18 625.67,520.57 C626.39,520.30 626.87,520.46 626.74,520.94 C626.61,521.41 626.84,521.84 627.25,521.90 C629.39,522.19 630.05,521.89 629.46,520.93 C629.02,520.23 629.95,519.97 632.15,520.18 C634.70,520.42 635.57,521.02 635.81,522.67 C636.00,523.98 636.49,524.80 637.83,525.41 ZM 450.41 465.87 C443.84,457.16 441.12,452.02 440.29,447.35 L 441.00 444.00 C441.41,442.08 441.80,441.14 441.87,441.92 C441.94,442.70 442.30,443.04 442.66,442.68 C443.69,441.64 446.00,444.04 446.00,446.15 C446.00,447.20 445.36,448.31 444.58,448.61 C443.79,448.91 442.88,449.88 442.53,450.77 C442.00,452.16 442.19,452.14 443.86,450.63 C446.37,448.35 447.11,449.56 447.41,456.48 C447.58,460.46 448.35,462.90 450.35,465.78 ZM 626.00 641.09 C626.00,640.38 624.86,639.96 623.25,640.09 C618.00,640.50 616.24,640.01 615.71,638.00 C615.18,635.99 615.39,635.88 622.18,634.55 C623.26,634.34 623.66,634.71 623.32,635.61 C623.03,636.38 623.40,637.01 624.14,637.02 C625.19,637.03 625.16,637.25 624.00,638.00 C622.79,638.78 622.95,638.97 624.79,638.98 C626.05,638.99 628.07,638.08 629.28,636.96 C631.57,634.82 636.06,634.63 636.72,636.64 C637.10,637.80 631.09,640.42 630.17,639.50 C629.89,639.22 628.84,639.74 627.83,640.65 C626.63,641.74 626.00,641.89 626.00,641.09 ZM 680.53 596.40 C689.54,584.07 695.96,569.43 695.99,560.28 C696.00,555.75 694.06,549.17 691.83,545.69 C695.07,548.77 698.34,551.30 699.53,551.60 C700.87,551.93 701.56,552.06 701.79,552.46 C702.01,552.86 701.75,553.53 701.21,554.96 C701.15,555.11 701.09,555.27 701.02,555.43 C699.92,558.34 697.08,558.90 696.85,556.25 C696.76,555.29 696.41,557.42 696.05,561.00 C695.70,564.58 695.76,567.75 696.19,568.05 C696.62,568.35 696.22,569.67 695.30,570.98 C691.66,576.18 686.16,588.91 686.69,590.92 C687.23,592.97 685.49,593.96 684.83,591.98 C684.65,591.46 682.77,593.41 680.53,596.40 ZM 665.95 101.93 C662.87,102.84 661.12,103.54 661.77,103.76 C663.72,104.41 663.20,107.80 661.04,108.49 C659.96,108.83 658.06,108.57 656.81,107.90 C654.62,106.72 654.61,106.66 656.52,105.91 C657.61,105.49 657.96,105.11 657.31,105.07 C656.65,105.03 652.91,106.19 649.00,107.64 C643.98,109.50 642.19,110.59 642.94,111.34 C643.52,111.92 644.00,112.76 644.00,113.20 C644.00,114.38 640.57,114.17 639.33,112.93 C638.65,112.25 636.24,112.98 631.12,115.45 C636.95,112.54 642.21,110.13 645.50,108.93 C648.80,107.72 651.95,106.39 652.50,105.96 C653.27,105.36 658.89,103.74 665.95,101.93 ZM 519.55 222.46 C517.49,225.79 515.55,229.39 515.47,230.44 C515.32,232.17 514.71,232.45 511.65,232.21 C509.46,232.03 508.00,232.36 508.00,233.03 C508.00,234.19 505.57,237.00 504.57,237.00 C503.23,237.00 504.17,234.30 506.08,232.67 C508.01,231.01 508.05,230.72 506.59,228.50 C505.61,227.00 505.40,225.87 506.03,225.48 C506.51,225.18 506.08,223.60 505.38,222.07 C506.42,223.69 507.42,225.26 508.36,226.75 C509.82,229.09 511.68,231.00 512.49,231.00 C513.30,231.00 516.09,227.74 518.70,223.75 C518.99,223.31 519.27,222.88 519.55,222.46 ZM 552.93 880.42 C549.80,876.65 556.29,873.33 560.01,876.79 L 562.08 878.72 L 559.57 880.36 C556.43,882.42 554.61,882.43 552.93,880.42 ZM 130.74 541.36 C127.26,535.92 124.03,530.72 121.22,526.00 C119.65,523.38 116.94,518.20 113.77,511.92 C116.73,517.35 117.84,518.54 118.61,517.91 C120.61,516.25 123.52,518.66 121.90,520.62 C121.28,521.37 120.34,521.71 119.82,521.39 C118.60,520.64 123.30,529.84 125.49,532.50 C126.91,534.23 127.01,534.25 126.21,532.64 C125.63,531.45 125.69,529.91 126.40,528.40 C127.67,525.65 128.55,525.38 129.36,527.50 C129.70,528.37 129.38,529.00 128.60,529.00 C126.10,529.00 127.29,535.38 130.74,541.36 ZM 745.75 101.30 C744.24,101.06 743.00,100.48 743.00,100.01 C743.00,99.53 742.21,98.94 741.25,98.69 C740.29,98.44 741.36,98.18 743.62,98.12 C745.89,98.05 749.23,97.70 751.03,97.34 C753.39,96.87 754.11,97.01 753.60,97.84 C753.20,98.48 753.44,99.00 754.14,99.00 C756.23,99.00 753.75,100.81 751.00,101.30 C749.62,101.54 747.26,101.54 745.75,101.30 ZM 819.36 640.90 C837.48,619.87 854.05,599.21 867.30,581.01 C874.73,570.78 877.55,566.16 876.86,565.33 C876.17,564.50 876.49,563.81 877.94,563.03 C879.16,562.38 880.00,560.93 880.00,559.46 C880.00,556.72 882.70,553.55 885.92,552.53 C887.08,552.16 887.77,551.44 887.46,550.93 C887.14,550.42 887.43,550.00 888.11,550.00 C888.35,550.00 888.53,549.96 888.64,549.89 C869.98,578.92 847.73,608.15 819.36,640.90 ZM 302.03 102.08 C302.08,99.53 306.74,96.72 309.69,97.46 L 312.25 98.10 L 310.05 100.45 C307.33,103.34 301.98,104.42 302.03,102.08 ZM 762.28 102.03 C762.17,100.67 762.53,100.20 763.31,100.67 C763.96,101.06 763.83,100.56 763.01,99.55 C761.64,97.87 761.69,97.76 763.51,98.31 C764.60,98.64 766.69,99.19 768.15,99.54 C772.37,100.54 771.17,103.44 766.38,103.80 C763.00,104.05 762.41,103.80 762.28,102.03 ZM 665.08 533.25 C664.88,533.19 664.69,533.14 664.50,533.09 C659.71,531.75 655.12,530.42 651.90,529.43 C654.09,529.60 656.72,529.24 659.57,528.35 C663.65,527.06 665.31,526.91 666.17,527.77 C667.02,528.62 666.64,529.21 664.65,530.11 C663.19,530.78 662.00,531.60 662.00,531.95 C662.00,532.14 663.28,532.65 665.08,533.25 ZM 449.18 868.50 C446.34,865.73 446.11,865.17 447.57,864.61 C450.17,863.62 452.57,864.75 453.86,867.59 C454.98,870.04 454.65,872.15 453.19,871.87 C452.81,871.79 451.01,870.28 449.18,868.50 ZM 613.71 124.70 C609.09,127.38 605.79,129.54 605.33,130.28 C604.92,130.93 605.20,131.00 606.10,130.46 C607.25,129.77 607.28,129.89 606.26,131.15 C605.58,131.99 605.30,132.97 605.65,133.31 C606.41,134.08 602.50,135.64 598.12,136.33 C596.16,136.64 593.07,138.46 588.73,141.90 C595.65,136.25 602.45,131.38 608.89,127.51 C610.40,126.60 612.02,125.66 613.71,124.70 ZM 312.01 751.88 C304.58,744.69 296.61,736.85 288.64,728.94 C295.28,735.45 299.88,739.80 299.58,739.27 C298.68,737.62 300.70,734.00 302.54,734.00 C304.38,734.00 304.39,734.75 302.56,736.59 C301.30,737.85 301.39,738.47 303.31,741.47 C304.51,743.37 306.17,744.94 307.00,744.97 C308.15,745.02 308.21,745.22 307.22,745.84 C306.77,746.13 308.28,748.05 312.01,751.88 ZM 431.95 860.37 C429.18,857.46 428.97,856.99 430.87,857.97 C432.17,858.65 432.97,858.76 432.63,858.21 C432.30,857.67 432.78,856.61 433.70,855.86 C435.16,854.68 435.29,854.72 434.74,856.20 C434.26,857.47 434.51,857.74 435.71,857.28 C436.82,856.86 437.09,857.05 436.58,857.87 C436.17,858.54 436.37,859.74 437.04,860.54 C437.95,861.65 437.96,862.00 437.06,862.00 C436.41,862.00 436.16,862.45 436.50,863.00 C437.95,865.35 435.12,863.71 431.95,860.37 ZM 380.43 306.11 C380.73,305.62 380.24,305.29 379.35,305.36 C378.45,305.44 377.52,304.94 377.27,304.25 C377.01,303.49 377.75,302.97 379.17,302.92 C380.45,302.88 382.29,302.70 383.25,302.51 C384.21,302.33 385.01,302.70 385.02,303.34 C385.02,304.00 385.45,303.85 386.00,303.00 C386.53,302.17 386.98,301.95 387.00,302.50 C387.02,303.05 387.47,302.83 388.00,302.00 C388.56,301.14 388.98,301.00 388.98,301.67 C388.99,302.31 387.48,303.77 385.63,304.92 C382.17,307.06 379.46,307.68 380.43,306.11 ZM 86.55 249.51 C86.10,250.95 85.82,252.09 85.76,252.86 C85.66,254.31 85.04,255.95 84.40,256.50 C83.12,257.61 79.00,270.71 79.00,273.71 C79.00,274.75 79.51,276.11 80.14,276.74 C80.98,277.58 80.86,278.29 79.64,279.51 C78.74,280.41 77.97,280.77 77.94,280.32 C77.78,278.32 76.02,284.22 74.40,291.92 C77.37,276.47 81.13,262.15 84.44,254.50 C84.75,253.79 85.52,251.96 86.55,249.51 ZM 696.73 574.93 C697.01,573.87 696.74,573.00 696.13,573.00 C695.52,573.00 695.79,572.10 696.73,571.00 C698.96,568.40 699.65,568.48 700.39,571.42 C701.20,574.63 700.36,576.55 698.09,576.72 C696.71,576.82 696.36,576.35 696.73,574.93 ZM 599.19 513.25 C599.43,511.99 600.55,511.47 603.19,511.40 C606.17,511.31 606.83,511.64 606.71,513.15 C606.60,514.61 605.76,515.00 602.71,515.00 C599.58,515.00 598.92,514.67 599.19,513.25 ZM 617.63 830.29 C616.17,828.84 617.21,827.12 620.15,826.10 L 620.44 826.00 C622.67,825.22 623.51,824.93 623.82,825.21 C624.00,825.38 624.00,825.75 624.00,826.35 L 624.00 826.47 C624.00,828.09 618.64,831.30 617.63,830.29 ZM 712.46 747.94 C712.11,747.36 712.11,745.71 712.47,744.28 L 713.12 741.68 L 715.23 743.78 C716.99,745.54 717.12,746.15 716.05,747.45 C714.54,749.26 713.38,749.42 712.46,747.94 ZM 573.40 865.61 C573.05,864.70 571.65,864.00 570.18,864.00 C567.70,864.00 567.65,863.92 569.32,862.25 C570.77,860.81 571.22,860.74 571.92,861.88 C572.39,862.64 573.16,863.02 573.64,862.73 C574.11,862.45 575.04,862.80 575.71,863.52 C576.66,864.54 576.61,865.08 575.47,866.03 C574.32,866.98 573.90,866.90 573.40,865.61 ZM 503.57 219.30 C503.35,219.11 503.15,219.00 502.98,219.00 C502.66,219.00 500.62,217.36 498.45,215.36 C495.08,212.27 494.76,211.63 496.27,211.09 C497.11,210.79 497.25,210.19 496.17,208.28 C498.71,211.97 501.23,215.73 503.57,219.30 ZM 944.47 430.40 C944.54,429.19 944.22,428.15 943.48,426.66 C942.12,423.93 942.12,423.45 943.48,422.09 C944.50,421.07 945.00,420.97 945.00,421.79 C945.00,422.45 945.38,423.00 945.84,423.00 C946.68,423.00 950.08,408.81 951.94,397.50 C952.26,395.57 952.72,392.83 953.18,390.18 C952.61,393.90 951.91,398.03 951.02,403.01 C949.84,409.62 946.70,422.52 944.47,430.40 ZM 872.82 151.76 C870.78,150.14 869.98,150.15 869.01,150.76 C866.44,152.37 865.66,152.33 866.31,150.62 C866.61,149.86 866.32,148.67 865.67,147.98 C864.76,146.99 864.80,146.88 865.82,147.46 C866.92,148.08 866.92,147.85 865.83,146.10 C865.11,144.95 863.98,144.00 863.32,144.00 C862.65,144.00 861.44,143.04 860.63,141.88 C860.11,141.14 859.31,140.29 858.52,139.60 C861.99,142.07 867.22,146.56 872.82,151.76 ZM 629.54 815.75 C630.56,812.39 631.42,811.85 633.41,813.31 C635.11,814.55 635.12,814.74 633.54,816.32 C631.02,818.84 628.71,818.51 629.54,815.75 ZM 454.50 572.00 C454.16,571.45 453.26,571.00 452.49,571.00 C451.73,571.00 449.90,569.42 448.43,567.50 C446.96,565.58 445.03,564.01 444.13,564.02 C442.21,564.04 451.79,572.90 453.81,572.96 C454.53,572.98 454.84,572.55 454.50,572.00 ZM 622.04 645.54 C620.66,643.89 621.44,642.00 623.50,642.00 C625.34,642.00 626.15,643.45 625.40,645.41 C624.64,647.39 623.60,647.43 622.04,645.54 ZM 566.70 631.96 C561.91,631.05 558.28,630.64 558.52,631.03 C558.78,631.45 557.87,631.72 556.51,631.64 C554.94,631.55 554.12,630.96 554.26,630.04 C554.39,629.23 553.60,628.42 552.50,628.23 C552.00,628.15 551.36,627.99 550.70,627.80 C551.73,628.06 552.91,628.31 554.04,628.50 C556.49,628.91 560.08,629.85 562.00,630.61 C562.94,630.97 564.67,631.46 566.70,631.96 ZM 902.10 183.41 C899.79,180.55 897.54,177.91 896.01,176.35 C893.93,174.24 892.28,173.38 890.96,173.72 C888.64,174.33 888.47,173.68 890.42,171.72 C891.18,170.96 891.00,170.05 888.58,167.31 C892.38,171.31 895.66,175.01 897.84,177.86 C899.39,179.87 900.81,181.72 902.10,183.41 ZM 98.80 231.44 C98.57,229.48 98.75,227.65 99.20,227.38 C100.31,226.69 101.81,231.00 101.23,233.21 C100.47,236.14 99.25,235.25 98.80,231.44 ZM 857.67 145.33 C856.71,144.37 856.84,141.00 857.85,141.00 C858.31,141.00 859.45,141.84 860.39,142.88 C861.94,144.59 861.95,144.81 860.46,145.38 L 860.41 145.40 C859.21,145.86 858.75,146.03 858.39,145.91 C858.17,145.84 857.98,145.65 857.67,145.33 ZM 571.89 879.75 C572.65,878.51 572.91,877.83 572.48,878.23 C572.05,878.64 571.06,878.19 570.27,877.23 C569.49,876.28 569.11,876.02 569.43,876.66 C569.75,877.31 569.48,878.01 568.83,878.22 C567.57,878.64 568.37,882.00 569.73,882.00 C570.16,882.00 571.14,880.99 571.89,879.75 ZM 896.19 537.84 C897.13,535.88 897.56,534.28 897.37,533.28 C897.05,531.51 897.65,530.53 899.78,529.31 C901.12,528.54 902.05,527.77 903.88,524.87 C901.38,529.20 898.82,533.52 896.19,537.84 ZM 295.79 729.00 C296.03,727.35 296.57,726.00 297.00,726.00 C298.37,726.00 298.97,730.40 297.71,731.20 C295.67,732.50 295.33,732.12 295.79,729.00 ZM 555.47 183.96 C554.54,182.44 557.08,179.68 558.29,180.89 C559.41,182.01 558.54,185.00 557.09,185.00 C556.56,185.00 555.83,184.53 555.47,183.96 ZM 514.00 622.11 C514.00,620.38 517.36,619.93 518.89,621.46 C520.27,622.85 520.11,623.00 517.21,623.00 C515.45,623.00 514.00,622.60 514.00,622.11 ZM 840.00 139.00 C840.00,137.90 840.39,137.00 840.88,137.00 C842.19,137.00 844.08,139.58 843.32,140.34 C841.96,141.71 840.00,140.92 840.00,139.00 ZM 888.79 549.65 C888.80,549.53 888.73,549.40 888.58,549.25 C888.17,548.84 887.19,549.39 886.39,550.48 C884.99,552.39 884.96,552.37 885.32,549.98 C885.58,548.26 886.37,547.46 887.88,547.39 C888.69,547.34 889.23,547.33 889.72,547.15 C890.19,546.97 890.61,546.63 891.16,545.94 C890.37,547.18 889.59,548.41 888.79,549.65 ZM 529.71 212.00 C530.34,209.60 531.56,209.41 532.39,211.58 C533.27,213.87 533.20,214.00 531.09,214.00 C529.68,214.00 529.32,213.48 529.71,212.00 ZM 229.07 655.59 C228.27,654.62 228.23,653.97 228.95,653.53 C230.35,652.67 232.00,653.77 232.00,655.56 C232.00,657.40 230.58,657.41 229.07,655.59 ZM 99.68 482.85 C98.52,480.34 97.43,477.98 96.46,475.83 C97.48,477.64 98.13,477.67 99.22,477.46 C101.19,477.08 101.19,477.14 99.36,481.59 C99.31,481.70 99.43,482.14 99.68,482.85 ZM 702.64 551.31 C701.44,550.11 701.99,548.00 703.50,548.00 C704.33,548.00 705.00,548.65 705.00,549.44 C705.00,551.11 703.57,552.24 702.64,551.31 ZM 75.00 310.50 C75.00,309.12 75.45,308.00 76.00,308.00 C76.55,308.00 77.00,309.12 77.00,310.50 C77.00,311.88 76.55,313.00 76.00,313.00 C75.45,313.00 75.00,311.88 75.00,310.50 ZM 752.72 708.70 C752.97,707.40 753.81,706.33 754.58,706.33 C756.51,706.33 756.36,707.36 754.13,709.38 C752.35,710.99 752.29,710.96 752.72,708.70 ZM 693.43 98.89 C693.43,97.75 694.13,97.00 695.18,97.00 C696.29,97.00 696.74,97.53 696.39,98.42 C695.53,100.66 693.43,100.99 693.43,98.89 ZM 76.46 376.93 C75.54,375.44 76.61,374.63 78.52,375.37 C79.40,375.71 79.85,376.44 79.50,376.99 C78.69,378.30 77.29,378.28 76.46,376.93 ZM 187.61 130.42 C186.78,128.27 186.83,128.00 188.06,128.00 C188.64,128.00 188.84,128.45 188.50,129.00 C188.16,129.55 188.61,130.00 189.50,130.00 C190.39,130.00 190.84,130.45 190.50,131.00 C189.59,132.48 188.30,132.22 187.61,130.42 ZM 338.00 365.61 C338.00,364.84 338.65,363.97 339.43,363.66 C340.40,363.29 340.82,363.75 340.72,365.06 C340.56,367.25 338.00,367.77 338.00,365.61 ZM 391.59 303.91 C385.80,306.47 378.89,310.70 374.11,314.67 C376.07,312.95 378.01,311.46 379.25,310.76 C381.31,309.59 383.00,308.26 383.00,307.82 C383.00,307.37 383.48,307.00 384.07,307.00 C384.66,307.00 385.82,306.33 386.64,305.50 C387.47,304.67 389.16,304.00 390.40,304.00 C390.80,304.00 391.21,303.97 391.59,303.91 ZM 923.29 216.06 C921.27,212.77 920.00,211.88 920.00,214.00 C920.00,214.55 919.55,215.00 919.00,215.00 C918.45,215.00 918.00,214.30 918.00,213.44 C918.00,212.58 918.42,212.14 918.93,212.46 C921.17,213.84 920.68,211.39 917.98,206.87 C919.72,209.65 921.50,212.75 923.29,216.06 ZM 550.65 184.53 C550.10,183.10 550.78,182.00 552.23,182.00 C552.72,182.00 552.86,182.41 552.55,182.91 C552.24,183.42 552.53,184.01 553.19,184.23 C553.98,184.49 553.83,184.85 552.78,185.25 C551.86,185.61 550.94,185.30 550.65,184.53 ZM 943.63 387.48 C942.71,385.07 944.07,383.37 945.24,385.47 C945.86,386.58 945.86,387.54 945.24,388.16 C944.61,388.79 944.04,388.55 943.63,387.48 ZM 564.15 540.10 C563.18,539.49 563.22,539.06 564.34,538.14 C565.46,537.20 565.89,537.27 566.34,538.44 C567.04,540.26 565.86,541.15 564.15,540.10 ZM 551.10 179.00 C550.67,179.72 550.52,180.20 550.63,180.48 C551.07,181.62 550.60,182.29 549.11,182.68 C547.85,183.01 542.75,189.08 537.56,195.88 C541.85,190.15 546.40,184.49 551.10,179.00 ZM 195.50 623.00 C195.10,622.35 195.22,621.38 195.77,620.83 C196.44,620.16 197.02,620.22 197.50,621.00 C197.90,621.65 197.78,622.62 197.23,623.17 C196.56,623.84 195.98,623.78 195.50,623.00 ZM 139.02 175.31 C139.01,174.10 139.45,172.84 140.00,172.50 C141.27,171.71 141.27,174.03 140.00,176.00 C139.21,177.22 139.03,177.09 139.02,175.31 ZM 403.00 828.00 C403.00,827.45 403.67,827.00 404.50,827.00 C405.33,827.00 406.00,827.45 406.00,828.00 C406.00,828.55 405.33,829.00 404.50,829.00 C403.67,829.00 403.00,828.55 403.00,828.00 ZM 495.00 501.00 C495.00,500.45 495.67,500.00 496.50,500.00 C497.33,500.00 498.00,500.45 498.00,501.00 C498.00,501.55 497.33,502.00 496.50,502.00 C495.67,502.00 495.00,501.55 495.00,501.00 ZM 459.00 365.11 C459.00,364.62 458.35,363.96 457.55,363.66 C456.58,363.29 456.29,363.58 456.66,364.55 C457.26,366.13 459.00,366.54 459.00,365.11 ZM 75.00 323.56 C75.00,322.70 75.45,322.00 76.00,322.00 C76.55,322.00 77.00,322.42 77.00,322.94 C77.00,323.46 76.55,324.16 76.00,324.50 C75.45,324.84 75.00,324.42 75.00,323.56 ZM 641.00 628.94 C641.00,628.42 640.55,628.00 640.00,628.00 C639.45,628.00 639.00,628.70 639.00,629.56 C639.00,630.42 639.45,630.84 640.00,630.50 C640.55,630.16 641.00,629.46 641.00,628.94 ZM 953.79 308.73 C950.28,284.21 942.88,258.66 932.28,234.47 C936.15,243.18 939.67,252.23 942.32,260.50 C948.15,278.64 951.78,293.36 953.79,308.73 ZM 638.37 822.12 C655.24,806.78 672.21,791.13 682.91,781.00 C685.35,778.70 687.79,776.39 690.11,774.20 C684.95,779.10 679.56,784.20 674.00,789.47 C667.02,796.07 653.15,808.75 638.37,822.12 ZM 71.99 305.82 C70.63,315.47 69.70,326.09 69.23,336.60 C69.46,329.06 69.87,322.07 70.47,316.99 C70.90,313.35 71.41,309.60 71.99,305.82 ZM 733.00 729.11 C733.00,728.62 733.74,727.93 734.64,727.58 C736.01,727.06 736.08,727.20 735.02,728.48 C733.58,730.21 733.00,730.39 733.00,729.11 ZM 246.00 104.00 C246.00,103.45 245.55,103.00 245.00,103.00 C244.45,103.00 244.00,103.45 244.00,104.00 C244.00,104.55 244.45,105.00 245.00,105.00 C245.55,105.00 246.00,104.55 246.00,104.00 ZM 108.80 203.85 C104.30,211.35 99.22,220.97 94.97,229.78 C99.08,220.83 103.71,212.17 108.80,203.85 ZM 582.78 146.90 C577.99,151.14 572.18,156.69 565.25,163.61 C564.37,164.49 563.53,165.34 562.73,166.14 C569.32,159.22 576.07,152.74 582.78,146.90 ZM 571.53 539.19 C571.22,538.89 570.41,539.19 569.73,539.88 C568.75,540.86 568.87,540.98 570.29,540.44 C571.28,540.06 571.83,539.50 571.53,539.19 ZM 356.32 449.10 C352.23,439.56 349.03,430.51 346.71,421.81 C347.31,424.02 347.97,426.25 348.68,428.50 C350.37,433.81 353.47,442.04 356.32,449.10 ZM 379.94 109.13 C365.68,103.38 350.98,99.20 335.50,96.45 C335.06,96.38 334.59,96.30 334.10,96.22 C340.88,97.21 347.43,98.73 356.00,101.03 C363.94,103.18 371.98,105.90 379.94,109.13 ZM 485.71 193.46 C481.22,187.54 476.61,181.83 471.90,176.39 C475.61,180.57 478.96,184.55 481.62,188.00 C482.85,189.60 484.23,191.45 485.71,193.46 ZM 348.66 351.75 C340.64,374.00 339.91,396.36 346.71,421.81 C339.90,396.78 340.55,374.23 348.66,351.75 ZM 909.59 514.72 C911.08,511.93 912.87,508.57 915.03,504.50 C918.56,497.85 922.86,488.58 926.94,479.16 C923.02,488.27 918.93,497.14 915.68,503.36 C913.69,507.17 911.66,510.95 909.59,514.72 ZM 94.02 470.31 C93.46,469.01 93.00,467.89 92.66,467.00 C90.04,460.20 87.65,453.50 85.48,446.87 C87.00,451.48 88.63,456.09 90.37,460.72 C91.90,464.82 93.08,467.94 94.02,470.31 ZM 369.69 318.95 C364.38,324.77 356.00,335.49 356.00,336.71 C356.00,337.10 355.21,338.59 354.16,340.22 C355.21,338.59 356.00,337.09 356.00,336.69 C356.00,335.40 364.12,324.92 369.69,318.95 ZM 935.74 457.57 C938.43,450.44 940.33,444.70 940.74,442.02 C941.03,440.09 941.60,438.05 941.99,437.50 C942.12,437.33 942.28,437.02 942.47,436.63 C941.75,438.29 940.93,440.98 940.63,442.69 C940.18,445.25 938.33,450.74 935.74,457.57 ZM 445.25 149.30 C441.58,146.06 437.90,143.00 434.23,140.15 C436.44,141.85 438.61,143.59 440.71,145.35 C442.13,146.54 443.65,147.86 445.25,149.30 ZM 421.45 131.03 C414.77,126.65 408.06,122.67 401.29,119.08 C408.21,122.74 414.97,126.74 421.45,131.03 ZM 912.41 198.00 C911.82,197.03 911.36,196.23 911.10,195.73 C910.95,195.44 910.74,195.09 910.48,194.68 C911.47,196.10 911.96,196.90 911.97,197.10 C911.98,197.19 912.13,197.51 912.41,198.00 ZM 955.75 352.24 C955.81,347.35 955.83,342.43 955.78,337.83 C955.85,342.40 955.84,347.18 955.75,352.24 ZM 647.57 528.01 C647.54,528.00 647.52,527.99 647.50,527.98 C646.59,527.55 645.05,527.06 643.77,526.78 C645.45,527.11 647.03,527.60 647.50,527.96 C647.52,527.97 647.54,527.99 647.57,528.01 ZM 395.87 302.27 C395.17,302.49 394.43,302.75 393.66,303.05 C394.08,302.75 394.70,302.51 395.87,302.27 ZM 331.55 95.88 C328.96,95.57 325.91,95.29 322.62,95.06 C325.79,95.26 328.71,95.53 331.55,95.88 ZM 524.22 216.17 C524.54,216.03 524.81,215.67 524.93,215.28 C524.82,215.67 524.54,216.03 524.23,216.17 C524.21,216.17 524.20,216.18 524.18,216.19 C524.20,216.18 524.21,216.17 524.22,216.17 Z" fill="rgb(40,178,64)"/>
<path d="M 0.00 512.00 L 0.00 0.00 L 512.00 0.00 L 1024.00 0.00 L 1024.00 512.00 L 1024.00 1024.00 L 512.00 1024.00 L 0.00 1024.00 L 0.00 512.00 ZM 520.86 922.80 C524.51,919.94 529.11,916.22 531.07,914.55 C533.04,912.87 540.46,906.79 547.57,901.02 C554.68,895.26 565.45,886.30 571.50,881.12 C577.55,875.93 585.18,869.39 588.46,866.59 C603.93,853.37 657.70,804.89 674.00,789.47 C711.87,753.63 741.55,725.13 747.00,719.37 C750.58,715.59 760.97,704.62 770.10,695.00 C842.53,618.64 883.82,564.30 915.68,503.36 C924.43,486.63 939.24,450.61 940.63,442.69 C940.94,440.94 941.79,438.15 942.52,436.50 C944.12,432.89 949.41,412.05 951.02,403.01 C954.62,382.81 955.21,376.71 955.70,354.85 C956.54,317.13 953.40,295.00 942.32,260.50 C936.21,241.46 925.51,218.27 916.52,204.58 C914.03,200.80 911.99,197.43 911.97,197.10 C911.94,196.47 907.40,190.29 897.84,177.86 C889.45,166.94 864.96,143.43 856.86,138.50 C855.95,137.95 851.68,135.02 847.36,131.98 C819.49,112.40 785.73,99.46 752.17,95.51 C733.23,93.28 706.62,93.52 692.20,96.06 C679.96,98.21 654.22,104.63 652.50,105.96 C651.95,106.39 648.80,107.72 645.50,108.93 C638.02,111.67 620.38,120.62 608.89,127.51 C582.91,143.10 551.12,175.07 529.17,207.70 C526.88,211.10 525.00,214.33 525.00,214.86 C525.00,215.40 524.65,215.98 524.22,216.17 C523.80,216.35 521.31,219.76 518.70,223.75 C516.09,227.74 513.30,231.00 512.49,231.00 C511.68,231.00 509.82,229.09 508.36,226.75 C500.74,214.61 488.81,197.33 481.62,188.00 C471.83,175.32 452.72,155.39 440.71,145.35 C416.66,125.24 385.69,109.04 356.00,101.03 C335.76,95.58 326.76,94.54 299.50,94.52 C273.34,94.50 272.08,94.64 244.00,100.89 C227.32,104.60 198.94,117.49 179.48,130.20 C141.25,155.16 110.04,193.30 91.50,237.70 C88.33,245.29 85.16,252.85 84.44,254.50 C79.36,266.26 73.20,293.81 70.47,316.99 C68.76,331.56 68.54,361.84 70.05,375.79 C73.38,406.54 80.61,435.73 92.66,467.00 C96.61,477.26 115.81,516.93 121.22,526.00 C130.96,542.35 145.78,564.59 158.44,581.86 C163.42,588.66 168.40,595.48 169.50,597.02 C170.60,598.56 172.53,601.09 173.80,602.66 C175.06,604.22 178.44,608.44 181.30,612.03 C191.02,624.23 219.77,657.27 236.95,676.00 C255.07,695.75 300.37,741.13 327.50,766.71 C341.80,780.20 355.75,793.35 358.50,795.95 C373.00,809.63 418.58,850.65 433.05,863.04 C437.20,866.59 448.22,876.05 457.55,884.06 C489.41,911.43 510.21,928.00 512.68,928.00 C513.53,928.00 517.21,925.66 520.86,922.80 ZM 573.50 633.40 C569.10,632.61 563.92,631.36 562.00,630.61 C560.08,629.85 556.49,628.91 554.04,628.50 C551.58,628.09 548.88,627.38 548.04,626.93 C547.19,626.48 543.35,624.91 539.50,623.45 C535.65,621.99 526.42,617.85 519.00,614.26 C487.92,599.20 460.26,578.93 428.69,548.04 C403.31,523.21 383.72,498.54 367.11,470.50 C364.83,466.65 362.56,462.83 362.07,462.00 C359.67,457.96 351.80,438.28 348.68,428.50 C339.85,400.76 339.84,376.21 348.66,351.75 C350.10,347.76 352.33,342.93 353.64,341.02 C354.94,339.10 356.00,337.16 356.00,336.71 C356.00,335.28 367.60,320.69 372.15,316.40 C377.94,310.93 388.98,304.38 396.00,302.23 C396.83,301.98 401.35,301.56 406.05,301.30 C420.03,300.51 426.68,303.38 433.20,313.03 C436.41,317.77 445.28,337.66 457.73,368.00 C459.64,372.67 461.78,377.85 462.47,379.50 C463.16,381.15 464.27,383.85 464.95,385.50 C465.63,387.15 466.41,391.65 466.67,395.50 C467.14,402.25 467.03,402.70 463.52,407.93 C461.52,410.91 456.42,417.60 452.19,422.78 C440.07,437.64 440.00,437.76 440.00,443.89 C440.00,452.24 444.59,459.58 465.16,484.13 C485.44,508.34 514.57,531.23 543.00,545.29 C548.33,547.92 550.69,548.50 556.08,548.50 C564.70,548.50 567.35,546.47 576.97,532.54 C589.28,514.71 593.48,513.72 623.16,521.61 C632.70,524.14 641.62,526.40 643.00,526.63 C644.38,526.85 646.40,527.46 647.50,527.98 C648.60,528.49 656.25,530.79 664.50,533.09 C679.77,537.34 687.35,540.59 690.85,544.38 C693.46,547.22 696.00,555.09 695.99,560.28 C695.95,571.19 686.83,589.92 675.06,603.22 C662.58,617.32 637.83,630.62 617.92,633.91 C608.83,635.41 583.17,635.12 573.50,633.40 Z" fill="rgb(249,249,249)"/>
</g>
</svg>
